<svg xmlns="http://www.w3.org/2000/svg" width="800" height="800">
<rect width="800" height="800" x="0" y="0" fill="#3a4379" ry="4"/>
<path fill="#6169a1" d="M57.8 17q-6.2 3-12.2 6.8a70.3 70.3 90 00-17.8 16.2c-2.7 4.3-6.2 8.1-8.1 12.7a83.8 83.8 90 00-5.4 12.4Q10.8 74.3 8.4 83.8q-2.2 10-3.5 20l-2.4 23-1.4 29.7-.8 54.6v405.4l1.6 45.4 2.2 27q1.4 11.9 3.5 23.5a124.3 124.3 90 005.1 18.9 83.8 83.8 90 005.7 14.1 78.4 78.4 90 0021.6 27q5.9 4.3 12.4 8.1 8.1 4.1 16.5 6.8 10.3 3.2 20.3 5.4 13.5 2.2 26.8 3.5l31.9 2.2 41.9 1.1h402.4q34.3 0 69.2-1.6 13.5-.5 27.3-2.2 11.9-1.4 23.5-3.5a124.3 124.3 90 0018.9-5.1 83.8 83.8 90 0014.1-5.7 78.4 78.4 90 0026.5-21.1q4.9-5.9 8.6-13 3-5.9 5.4-12.4 3-9.2 5.4-18.6 2.2-10 3.2-20 1.6-11.4 2.7-23l1.4-29.7.8-54.6v-405.4l-1.6-45.4-2.2-27q-1.4-11.9-3.5-23.5a124.3 124.3 90 00-5.1-18.9 83.8 83.8 90 00-5.7-14.1 78.4 78.4 90 00-21.6-27q-5.7-4.3-12.4-8.1-8.1-4.1-16.5-6.8a124.3 124.3 90 00-20.3-5.4q-13.5-2.2-26.8-3.5-16.2-1.6-31.9-2.2l-41.9-1.1H207.6q-34.3 0-69.2 1.6l-27.3 2.2q-11.9 1.4-23.5 3.5a124.3 124.3 90 00-29.7 9.2"/>
<path fill="#949dd7" d="M57.8 70.3a154.1 154.1 90 00-14.9 19.5l-7.8 13.5a129.7 129.7 90 00-8.9 19.5q-4.6 10.3-7.8 21.6l-4.9 18.4-3.8 18.9q-2.7 14.6-4.3 29.2l-2.7 34.6-1.6 40.5-.5 42.2V454.1l.5 61.6a1000 1000 90 005.9 86.5q1.9 13.5 4.6 27a254.1 254.1 90 006.5 25.7q2.7 10 6.8 19.5a162.2 162.2 90 0010 22.2q3.8 7 8.1 13.5a154.1 154.1 90 0015.7 20.3 159.5 159.5 90 0023.8 21.6l14.1 9.5c8.1 4.1 15.7 8.6 23.8 11.6q11.9 4.9 23.8 8.6l18.6 4.9q9.5 2.4 18.9 3.8 14.6 2.7 29.2 4.3l34.6 2.7q20.5 1.1 41.6 1.6 30.3.8 60.3.5H459.5q26.5 0 52.7-.5l34.1-1.1q16.2-.8 33.2-2.4 15.1-1.4 30.3-3.5 16.2-2.7 32.4-6.5 12.2-3.2 23.8-7.3 8.9-3 17.3-6.8c7.3-2.7 14.3-7 21.1-10.8q8.9-5.4 16.8-11.6a156.8 156.8 90 0035.9-39.5q5.7-8.9 10.8-18.1 5.4-11.9 9.7-24.1 3.8-10.3 6.5-20.8 3.5-13.5 5.7-27 2.4-10.8 3.5-22.4 1.9-15.1 3-29.7 2.2-25.7 2.4-50.8l.5-41.4v-157.6q0-31.9-1.6-63.8a881.1 881.1 90 00-5.4-58.1q-1.6-12.2-4.1-24.9a254.1 254.1 90 00-6.5-25.7q-2.7-10-6.8-19.5a162.2 162.2 90 00-10-22.2q-3.8-7-8.1-13.5a151.4 151.4 90 00-15.7-20.3 159.5 159.5 90 00-23.8-21.6l-14.1-9.5q-11.9-6.8-23.8-11.6t-23.8-8.6l-18.6-4.9-18.9-3.8q-14.6-2.7-29.2-4.3l-34.6-2.7-41.4-1.6-60.5-.5H340.5l-52.7.5q-17 .3-33.8 1.4-17 .8-33.5 2.2-14.9 1.4-30.3 3.5-16.2 2.7-32.4 6.5-12.2 3.2-23.8 7.3-8.9 3-17.3 6.8-10.8 4.6-21.1 10.8-8.6 5.4-16.8 11.6a162.2 162.2 90 00-20.5 18.9z"/>
<circle cx="400" cy="400" r="400" fill="#bbc3ff"/>
<path fill="#949dd7" d="m398.356.864 1.87-.766 3.746 2.18 6.574 4.394 10.548 7.64 15.292 11.802 19.864 16.144 26.132 22.236 16.056 14.11 28.846 26.084 30.112 28.124 29.234 28.126 28.446 28.124 27.704 28.126 26.972 28.124 26.224 28.126 27.46 30.426 25.066 28.884 17.124 20.584 14.72 18.544 11.706 15.76 6.498 9.728L800 400l-.976 1.84-4.09 6.374-8.216 11.494-11.056 14.428-14.35 17.8-15.414 18.376-24.502 28.126-26.084 28.846-28.124 30.112-28.126 29.234-28.124 28.446-28.126 27.704-28.124 26.972-28.126 26.224-30.426 27.46-28.884 25.066-20.584 17.124-18.544 14.72-14.06 10.496-10.092 6.88L400 800l-1.84-.976-6.374-4.09-8.566-6.058-12.196-9.188-17.692-14.062-20.584-17.124-17.122-14.73-28.126-24.98-29.958-27.542-29.658-28.124L199.052 625l-28.072-28.124-27.34-28.126-26.6-28.124-26.416-28.772-28.124-31.77-23.812-28.148-14.35-17.8-13.214-17.356-8.39-12.09L0 400l.976-1.84 4.09-6.374 8.216-11.494 11.056-14.428 14.35-17.8 15.414-18.376 24.502-28.126 26.084-28.846 28.124-30.112 28.126-29.234 28.122-28.446 28.126-27.704 28.124-26.972 28.126-26.224 30.426-27.46 28.884-25.066 20.584-17.122 18.544-14.72 14.06-10.5 10.092-6.88z"/>
<path fill="#6169a1" d="M399.94.976 400 0l.512 5.372 1.05 6.348 1.666 7.714 2.44 9.274 3.09 10.076 3.868 11.09L417.56 62.5l6.108 14.062 6.716 14.064 8.26 15.834 6.902 12.29 10.704 17.716 6.702 10.408 14.902 21.606 6.52 8.88 14.064 18.144 14.062 16.94 14.062 15.892 14.062 14.96 14.064 14.12 14.062 13.346 14.062 12.63 14.062 11.96 14.064 11.32 20.582 15.474 10.69 7.54 21.324 14.064 10.98 6.738 17.88 10.244 12.414 6.576 15.58 7.618 11.064 4.964 14.85 6.048 12.292 4.432 12.304 3.852 10.548 2.758 8.788 1.818 7.21 1.024L800 400l-7.228.78-8.416 1.584-9.668 2.36-9.53 2.774-10.534 3.504-12.746 4.786-12.686 5.306-15.222 7.032-15.582 7.912-11.254 6.15-12.62 7.324-17.334 10.792-16.83 11.296L625 482.62l-14.062 10.708-14.062 11.32-14.064 11.96-14.062 12.63-14.062 13.348-14.062 14.12-14.064 14.96-14.062 15.89-14.062 16.94-5.11 6.44-15.474 20.584-7.54 10.69-14.064 21.324-6.738 10.98-10.244 17.88-6.576 12.414-7.618 15.58-4.964 11.064-6.048 14.85-4.432 12.292-3.646 11.594-2.568 9.6-1.892 8.688-1.128 7.032L400 800l-.512-5.372-1.05-6.348-1.666-7.714-2.44-9.274-3.09-10.076-3.868-11.09-4.934-12.626-6.108-14.062-6.716-14.062-8.26-15.836-6.902-12.29-10.704-17.716-6.702-10.408-14.902-21.606-6.52-8.88-14.064-18.144-14.062-16.94-14.062-15.892-14.062-14.96-14.064-14.12-14.062-13.346-14.062-12.63-14.062-11.96-14.064-11.32-20.582-15.474-10.69-7.54-21.324-14.064-10.98-6.738-17.88-10.244-12.414-6.576-15.58-7.618-11.064-4.964-14.85-6.048-12.292-4.432-12.304-3.852-10.548-2.758-8.788-1.818-7.21-1.024L0 400l7.228-.78 8.416-1.584 9.668-2.36 9.53-2.774 10.534-3.504 12.746-4.786 12.686-5.306 15.222-7.032 15.582-7.912 11.254-6.15 12.62-7.324 17.334-10.792 16.83-11.296L175 317.38l14.062-10.708 14.062-11.32 14.064-11.96 14.062-12.63 14.062-13.348 14.062-14.12 14.064-14.96 14.062-15.89 14.062-16.94 5.11-6.44 15.474-20.584 7.54-10.69 14.064-21.324 6.738-10.98 10.244-17.88 6.576-12.414 7.618-15.58 4.964-11.064 6.048-14.85 4.432-12.292 3.646-11.594 2.568-9.6 1.892-8.688 1.128-7.032z"/><path fill="#3a4379" d="M400 .976V0l.326 137.208.52 36.946.746 28.092.974 22.922 1.192 19.144 1.28 15.062 1.612 14.444 1.768 12.296 1.478 8.418 2.246 10.546 2.602 9.864 2.472 7.714 2.672 7.032 3.176 7.03 4.284 7.81 4.178 6.254 3.63 4.61 4.53 4.922 4.92 4.53 4.612 3.63 7.032 4.648 7.032 3.814 7.03 3.176 9.368 3.468 10.886 3.196 7.872 1.886 12.12 2.366 14.246 2.144 15.82 1.79 18.46 1.522 22.45 1.278 27.646.996 23.896.53 53.282.546 1.044-.032 4.532.06 4.258-.042 2.744.072 2.528-.062 2.74.068 2.534-.058 2.732.064 3.42-.052.092.056 4.304-.048 4.312.06h.162l4.314-.044 4.466.052 4.324-.036 4.456.046 6.09-.028 6.2.04 7.862-.016 8.79.014 11.446.032 18.436.018L800 400l-152.646.498-71.572 2.02-20.8 1.294-19.97 1.802-15.48 1.94-11.648 1.892-11.67 2.394-8.768 2.222-10.102 3.154-7.032 2.672-7.03 3.176-7.81 4.284-6.254 4.178-4.61 3.63-4.922 4.53-4.53 4.92-3.63 4.612-4.648 7.032-3.814 7.032-3.176 7.03-3.468 9.368-2.48 8.21-2.1 8.324-1.944 9.254-2.02 11.882-1.704 12.728-1.464 14.062-1.312 16.7-1.112 19.688-.892 23.38-.674 28.84-.444 36.472-.186 47.274L400 800l-.326-137.208-.52-36.946-.746-28.092-.974-22.922-1.192-19.144-1.28-15.062-1.612-14.444-1.768-12.296-1.478-8.418-2.246-10.546-2.602-9.864-2.472-7.714-2.672-7.032-3.176-7.03-4.284-7.81-4.178-6.254-3.63-4.61-4.53-4.922-4.92-4.53-4.612-3.63-7.032-4.648-7.032-3.814-7.03-3.176-9.368-3.468-10.886-3.196-7.872-1.886-12.12-2.366-14.246-2.144-15.82-1.79-18.46-1.522-22.45-1.278-27.646-.996-23.896-.53-53.282-.546-1.044.032-4.532-.06-4.258.042-2.744-.072-2.528.062-2.74-.068-2.534.058-2.732-.064-3.42.052-.092-.056-4.304.048-4.312-.06h-.162l-4.314.044-4.466-.052-4.324.036-4.456-.046-6.09.028-6.2-.04-7.862.016-8.79-.014-11.446-.032-18.436-.018L0 400l152.646-.498 71.572-2.02 20.8-1.294 19.97-1.802 15.48-1.94 11.648-1.892 11.67-2.394 8.768-2.222 10.102-3.154 7.032-2.672 7.03-3.176 7.81-4.284 6.254-4.178 4.61-3.63 4.922-4.53 4.53-4.92 3.63-4.612 4.648-7.032 3.814-7.032 3.176-7.03 3.468-9.368 2.48-8.21 2.1-8.324 1.944-9.254 2.02-11.882 1.704-12.728 1.464-14.062 1.312-16.7 1.112-19.688.892-23.38.674-28.84.444-36.472.186-47.274z"/>
</svg>
