<svg xmlns="http://www.w3.org/2000/svg" viewBox="0 0 27.871 27.871"><path fill="#047cad" d="M13.893 27.871h.085c7.673 0 13.893-6.22 13.893-13.892v-.086C27.871 6.22 21.651 0 13.978 0h-.085C6.22 0 0 6.22 0 13.893v.086C0 21.65 6.22 27.87 13.893 27.87"/><path fill="#fff" d="M12.883 20.118h6.755v3.205H8.354v-3.39q3.655-3.55 5.231-5.848t1.576-4.019q0-1.153-.688-1.828-.69-.676-1.854-.676-.835 0-1.776.325a9.2 9.2 0 0 0-1.92.947l-.291-3.523a11 11 0 0 1 2.33-.82 10.8 10.8 0 0 1 2.465-.292q2.688 0 4.277 1.404c1.59 1.404 1.59 2.203 1.59 3.8q0 2.253-1.563 4.868t-4.848 5.847"/></svg>
