<svg xmlns="http://www.w3.org/2000/svg" width="76" height="76" viewBox="0 0 76 76"><defs><clipPath id="a" clipPathUnits="userSpaceOnUse"><path d="M10 57C4.477 57 0 52.523 0 47V10C0 4.477 4.477 0 10 0h37c5.523 0 10 4.477 10 10v37c0 5.523-4.477 10-10 10z"/></clipPath><clipPath id="b" clipPathUnits="userSpaceOnUse"><path d="M-14.303 53.632c-5.523 0-10-4.477-10-10v-37c0-5.523 4.477-10 10-10h37c5.523 0 10 4.477 10 10v37c0 5.523-4.477 10-10 10z"/></clipPath><clipPath id="c" clipPathUnits="userSpaceOnUse"><path d="M-28.537 38.794c-5.523 0-10-4.477-10-10v-37c0-5.523 4.477-10 10-10h37c5.523 0 10 4.477 10 10v37c0 5.523-4.477 10-10 10z"/></clipPath><clipPath id="d" clipPathUnits="userSpaceOnUse"><path d="M-27.975 53.686c-5.523 0-10-4.477-10-10v-37c0-5.523 4.477-10 10-10h37c5.523 0 10 4.477 10 10v37c0 5.523-4.477 10-10 10z"/></clipPath><clipPath id="e" clipPathUnits="userSpaceOnUse"><path d="M10 57C4.477 57 0 52.523 0 47V10C0 4.477 4.477 0 10 0h37c5.523 0 10 4.477 10 10v37c0 5.523-4.477 10-10 10z"/></clipPath><clipPath id="f" clipPathUnits="userSpaceOnUse"><path d="M10 57C4.477 57 0 52.523 0 47V10C0 4.477 4.477 0 10 0h37c5.523 0 10 4.477 10 10v37c0 5.523-4.477 10-10 10z"/></clipPath><clipPath id="g" clipPathUnits="userSpaceOnUse"><path d="M10 57C4.477 57 0 52.523 0 47V10C0 4.477 4.477 0 10 0h37c5.523 0 10 4.477 10 10v37c0 5.523-4.477 10-10 10z"/></clipPath><clipPath id="h" clipPathUnits="userSpaceOnUse"><path d="M10 57C4.477 57 0 52.523 0 47V10C0 4.477 4.477 0 10 0h37c5.523 0 10 4.477 10 10v37c0 5.523-4.477 10-10 10z"/></clipPath><clipPath id="i" clipPathUnits="userSpaceOnUse"><path d="M10 57C4.477 57 0 52.523 0 47V10C0 4.477 4.477 0 10 0h37c5.523 0 10 4.477 10 10v37c0 5.523-4.477 10-10 10z"/></clipPath><clipPath id="j" clipPathUnits="userSpaceOnUse"><path d="M5.515 51.01c-5.523 0-10-4.477-10-10v-37c0-5.523 4.477-10 10-10h37c5.523 0 10 4.477 10 10v37c0 5.523-4.477 10-10 10z"/></clipPath><clipPath id="k" clipPathUnits="userSpaceOnUse"><path d="M-.038 36.084c-5.523 0-10-4.477-10-10v-37c0-5.523 4.477-10 10-10h37c5.523 0 10 4.477 10 10v37c0 5.523-4.477 10-10 10z"/></clipPath><clipPath id="l" clipPathUnits="userSpaceOnUse"><path d="M4.525 42.919c-5.523 0-10-4.477-10-10v-37c0-5.523 4.477-10 10-10h37c5.523 0 10 4.477 10 10v37c0 5.523-4.477 10-10 10z"/></clipPath><clipPath id="m" clipPathUnits="userSpaceOnUse"><path d="M-3.75 43.043c-5.523 0-10-4.477-10-10v-37c0-5.523 4.477-10 10-10h37c5.523 0 10 4.477 10 10v37c0 5.523-4.477 10-10 10z"/></clipPath><clipPath id="n" clipPathUnits="userSpaceOnUse"><path d="M2.902 29.988c-5.523 0-10-4.477-10-10v-37c0-5.523 4.477-10 10-10h37c5.523 0 10 4.477 10 10v37c0 5.523-4.477 10-10 10z"/></clipPath><clipPath id="o" clipPathUnits="userSpaceOnUse"><path d="M-3.598 33.478c-5.523 0-10-4.477-10-10v-37c0-5.523 4.477-10 10-10h37c5.523 0 10 4.476 10 10v37c0 5.522-4.477 10-10 10z"/></clipPath><clipPath id="p" clipPathUnits="userSpaceOnUse"><path d="M-34.667 52.184c-5.523 0-10-4.477-10-10v-37c0-5.523 4.477-10 10-10h37c5.523 0 10 4.477 10 10v37c0 5.523-4.477 10-10 10z"/></clipPath><clipPath id="q" clipPathUnits="userSpaceOnUse"><path d="M-36.187 45.821c-5.523 0-10-4.477-10-10v-37c0-5.523 4.477-10 10-10h37c5.523 0 10 4.477 10 10v37c0 5.523-4.477 10-10 10z"/></clipPath><clipPath id="r" clipPathUnits="userSpaceOnUse"><path d="M-43.546 45.89c-5.523 0-10-4.477-10-10v-37c0-5.523 4.477-10 10-10h37c5.523 0 10 4.477 10 10v37c0 5.523-4.477 10-10 10z"/></clipPath><clipPath id="s" clipPathUnits="userSpaceOnUse"><path d="M-44.282 41.907c-5.523 0-10-4.477-10-10v-37c0-5.523 4.477-10 10-10h37c5.523 0 10 4.477 10 10v37c0 5.523-4.477 10-10 10z"/></clipPath><clipPath id="t" clipPathUnits="userSpaceOnUse"><path d="M10 57C4.477 57 0 52.523 0 47V10C0 4.477 4.477 0 10 0h37c5.523 0 10 4.477 10 10v37c0 5.523-4.477 10-10 10z"/></clipPath></defs><g><path fill="yellow" d="M57 0H0v57h57z" clip-path="url(#a)" transform="matrix(1.33333 0 0 -1.33333 0 76)"/><path stroke="#000" d="M0 0c0-.929-.661-1.678-1.479-1.678h-1.88c-.815 0-1.479.749-1.479 1.678 0 .926.664 1.678 1.479 1.678h1.88C-.661 1.678 0 .926 0 0" clip-path="url(#b)" transform="matrix(1.33333 0 0 -1.33333 32.404 71.51)"/><path stroke="#000" d="M0 0c0 4.85-1.174 5.965-4.511 5.965h-11.084c-2.678 0-4.133-.904-4.133-5.965v-9.271c0-5.543-.8-5.112 4.133-5.112h11.084C.75-14.171.095-14.814 0-9.271Z" clip-path="url(#c)" transform="matrix(1.33333 0 0 -1.33333 51.383 51.725)"/><path stroke="#000" d="M0 0c0-.929-.665-1.679-1.483-1.679h-1.876c-.818 0-1.479.75-1.479 1.679 0 .925.661 1.679 1.479 1.679h1.876C-.665 1.679 0 .925 0 0" clip-path="url(#d)" transform="matrix(1.33333 0 0 -1.33333 50.633 71.582)"/><path fill="#fff" d="M34.826 21.617H22.19v1.388h12.636z" clip-path="url(#e)" transform="matrix(1.33333 0 0 -1.33333 0 76)"/><path fill="#fff" d="M27.965 20.445h-8.313v-7.727h8.313z" clip-path="url(#f)" transform="matrix(1.33333 0 0 -1.33333 0 76)"/><path fill="#fff" d="M37.27 20.445h-8.129v-7.778h8.129Z" clip-path="url(#g)" transform="matrix(1.33333 0 0 -1.33333 0 76)"/><path fill="#fff" d="M24.725 9.683h-5.023V7.234h5.023z" clip-path="url(#h)" transform="matrix(1.33333 0 0 -1.33333 0 76)"/><path fill="#fff" d="M37.458 9.734h-4.839V7.445h4.839z" clip-path="url(#i)" transform="matrix(1.33333 0 0 -1.33333 0 76)"/><path d="M0 0h-.002l1.051 1.977h6.487L8.587 0Zm6.149 4.589.862-1.624H1.573l.863 1.624zm3.485-6.563 2.409.556-3.532 6.094c1.717.22 3.319 1.004 3.319 3.846v6.656c0 .337-.018 1.646-1.291 2.078v2.441c0 .93-1.813 2.221-2.221 2.221l-4.145.494-4.147-.494c-.407 0-2.22-1.261-2.22-2.221v-2.439c-1.286-.43-1.291-1.741-1.291-2.08V8.522c0-3.038 1.447-3.731 3.535-3.888l-3.508-6.052 2.409-.556.523.987h9.635z" clip-path="url(#j)" transform="matrix(1.33333 0 0 -1.33333 5.98 68.013)"/><path fill="#fff" stroke="#fff" stroke-width=".75" d="M0 0a1.379 1.379 0 1 0-2.758-.002A1.379 1.379 0 0 0 0 0" clip-path="url(#k)" transform="matrix(1.33333 0 0 -1.33333 13.383 48.112)"/><path fill="#fff" stroke="#fff" stroke-width=".75" d="M0 0a.99.99 0 0 0-1.978 0A.988.988 0 0 0 0 0" clip-path="url(#l)" transform="matrix(1.33333 0 0 -1.33333 7.3 57.225)"/><path fill="#fff" stroke="#fff" stroke-width=".75" d="M0 0a.989.989 0 1 0-1.977.003A.989.989 0 0 0 0 0" clip-path="url(#m)" transform="matrix(1.33333 0 0 -1.33333 18.333 57.39)"/><path fill="#fff" stroke="#fff" stroke-width=".75" d="m0 0-1.66-.21c-.314 0-1.721-1.036-1.721-1.826v-1.455L0-2.574Z" clip-path="url(#n)" transform="matrix(1.33333 0 0 -1.33333 9.464 39.984)"/><path fill="#fff" stroke="#fff" stroke-width=".75" d="M0 0v1.453c0 .765-1.406 1.826-1.722 1.826l-1.731.219V.95Z" clip-path="url(#o)" transform="matrix(1.33333 0 0 -1.33333 18.13 44.637)"/><path d="m0 0-.002-.001.965 1.816h5.961L7.888 0Zm5.9 3.743.541-1.019H1.445l.541 1.019ZM1.308 25.879h5.271L5.52 22.955H2.367ZM8.141 3.743h.457c1.215 0 2.201.986 2.201 2.201l-.551 14.81a2.2 2.2 0 0 1-2.2 2.201H6.367l1.06 2.924h1.27v-1.066h.894v1.789H-1.792v-1.789h.757v1.066H.459l1.061-2.924H-.16a2.2 2.2 0 0 1-2.201-2.201l-.551-14.81c0-1.215.986-2.201 2.201-2.201h.457l-2.925-5.049 2.213-.51.483.908H8.37l.482-.908 2.213.51z" clip-path="url(#p)" transform="matrix(1.33333 0 0 -1.33333 59.556 69.578)"/><path fill="#fff" d="M0 0a1.256 1.256 0 1 0-2.512.004A1.256 1.256 0 0 0 0 0" clip-path="url(#q)" transform="matrix(1.33333 0 0 -1.33333 61.582 61.095)"/><path fill="#fff" d="M0 0a1.256 1.256 0 1 0-2.512.002A1.256 1.256 0 0 0 0 0" clip-path="url(#r)" transform="matrix(1.33333 0 0 -1.33333 71.395 61.186)"/><path fill="#fff" d="M0 0c0-.588-.571-1.065-1.616-1.065h-8.001c-1.045 0-1.727.477-1.727 1.065l.309 7.177c0 .588.847 1.066 1.89 1.066h7.056c1.044 0 1.892-.478 1.892-1.066z" clip-path="url(#s)" transform="matrix(1.33333 0 0 -1.33333 72.376 55.876)"/><path fill="#fff" d="M53.253 24.265h-9.285v1.788h9.285z" clip-path="url(#t)" transform="matrix(1.33333 0 0 -1.33333 0 76)"/></g></svg>
