<svg xmlns="http://www.w3.org/2000/svg" viewBox="0 0 40 40">
<path d="M 34.638 1.425 C 36.381 2.354 37.748 3.718 38.681 5.457 C 39.613 7.195 40.109 8.919 40.109 13.674 L 40.109 26.326 C 40.109 31.081 39.613 32.805 38.681 34.544 C 37.749 36.281 36.381 37.646 34.638 38.575 C 32.895 39.505 31.166 40 26.398 40 L 13.712 40 C 8.944 40 7.215 39.505 5.471 38.575 C 3.729 37.646 2.361 36.282 1.429 34.543 C 0.512 32.834 0.017 31.139 0 26.565 L 0 13.674 C 0 8.919 0.496 7.195 1.429 5.456 C 2.361 3.719 3.728 2.354 5.472 1.425 C 7.185 0.511 8.885 0.017 13.471 0 L 26.398 0 C 31.166 0 32.895 0.495 34.638 1.425 Z" fill="#27a559"/>
<path d="M 24.727 8.333 C 20.868 8.333 17.721 11.413 17.721 15.235 L 17.72 16.474 L 17.706 24.765 C 17.706 25.989 16.673 27 15.379 27 C 14.084 27 13.052 25.989 13.052 24.765 L 13.048 22.979 C 13.048 22.914 13.014 22.855 12.959 22.822 C 12.904 22.788 12.835 22.785 12.778 22.814 L 12.7 22.852 C 12.636 22.883 12.572 22.913 12.507 22.94 C 11.933 23.177 11.317 23.299 10.696 23.298 C 10.076 23.298 9.484 23.179 8.941 22.963 C 8.838 22.921 8.737 22.875 8.638 22.825 C 8.58 22.797 8.512 22.8 8.457 22.834 C 8.402 22.867 8.369 22.927 8.368 22.991 L 8.373 24.769 C 8.372 28.587 11.519 31.667 15.378 31.667 C 19.239 31.667 22.386 28.587 22.386 24.765 L 22.386 23.526 L 22.4 15.235 C 22.4 14.011 23.432 13 24.727 13 C 26.022 13 27.054 14.011 27.054 15.235 L 27.056 16.838 C 27.057 16.902 27.091 16.961 27.146 16.995 C 27.201 17.028 27.269 17.031 27.327 17.003 C 27.458 16.937 27.567 16.887 27.652 16.853 C 28.196 16.636 28.791 16.516 29.414 16.516 C 30.045 16.516 30.648 16.639 31.2 16.864 C 31.271 16.892 31.359 16.933 31.467 16.985 C 31.525 17.013 31.593 17.01 31.648 16.976 C 31.703 16.942 31.736 16.882 31.736 16.818 L 31.734 15.231 C 31.734 11.413 28.587 8.333 24.727 8.333 Z M 31.732 25.58 C 31.709 25.535 31.67 25.502 31.623 25.486 C 31.576 25.471 31.524 25.475 31.48 25.497 L 31.405 25.534 C 31.333 25.568 31.271 25.596 31.219 25.618 C 30.662 25.847 30.053 25.973 29.414 25.973 C 28.766 25.973 28.147 25.852 27.585 25.618 C 27.548 25.602 27.512 25.586 27.476 25.569 L 27.345 25.504 C 27.287 25.474 27.218 25.476 27.162 25.51 C 27.106 25.544 27.072 25.604 27.072 25.669 L 27.078 28.808 C 27.08 29.994 28.045 30.953 29.234 30.951 L 29.608 30.951 C 30.179 30.95 30.727 30.723 31.13 30.32 C 31.533 29.916 31.758 29.369 31.757 28.8 L 31.752 25.662 C 31.752 25.633 31.745 25.605 31.732 25.58 Z M 29.414 18.133 C 29.296 18.133 29.178 18.14 29.061 18.153 L 29.017 18.158 C 28.826 18.183 28.638 18.225 28.455 18.284 L 28.424 18.294 C 28.349 18.319 28.274 18.347 28.2 18.378 L 28.1 18.423 C 28.087 18.429 28.075 18.434 28.062 18.44 L 28.005 18.469 C 27.943 18.5 27.883 18.533 27.824 18.568 L 27.762 18.607 C 27.576 18.723 27.403 18.858 27.245 19.009 L 27.224 19.031 L 27.209 19.046 L 27.141 19.116 L 27.06 19.204 C 26.566 19.769 26.293 20.494 26.294 21.244 C 26.294 22.107 26.647 22.888 27.217 23.452 L 27.257 23.49 C 27.299 23.531 27.343 23.57 27.387 23.608 L 27.415 23.632 C 27.543 23.739 27.679 23.835 27.823 23.92 L 27.86 23.942 C 27.878 23.952 27.897 23.963 27.915 23.972 L 27.969 24.001 L 28.005 24.02 C 28.408 24.224 28.851 24.338 29.303 24.353 L 29.414 24.356 L 29.521 24.354 L 29.534 24.353 L 29.579 24.351 L 29.649 24.347 L 29.709 24.342 C 29.784 24.335 29.858 24.325 29.932 24.312 L 29.939 24.312 C 30.328 24.246 30.7 24.106 31.036 23.901 L 31.081 23.873 C 31.116 23.85 31.151 23.827 31.186 23.804 L 31.207 23.788 C 31.336 23.698 31.457 23.599 31.57 23.491 L 31.596 23.465 C 31.649 23.414 31.7 23.36 31.749 23.305 L 31.697 23.36 L 31.762 23.29 C 32.229 22.76 32.499 22.087 32.53 21.382 L 32.533 21.244 C 32.534 20.442 32.223 19.671 31.665 19.093 L 31.646 19.074 C 31.425 18.848 31.171 18.656 30.893 18.506 L 30.834 18.475 C 30.777 18.445 30.719 18.418 30.66 18.392 L 30.651 18.388 C 30.543 18.341 30.432 18.301 30.32 18.267 L 30.275 18.254 C 30.127 18.212 29.976 18.18 29.824 18.16 L 29.768 18.153 C 29.704 18.146 29.639 18.141 29.574 18.137 L 29.545 18.136 L 29.521 18.135 Z M 8.436 16.427 C 7.884 17.004 7.576 17.771 7.576 18.569 C 7.576 19.339 7.862 20.081 8.381 20.652 L 8.438 20.714 C 8.473 20.75 8.509 20.786 8.546 20.821 L 8.595 20.867 C 8.773 21.029 8.969 21.17 9.179 21.287 L 9.218 21.308 C 9.567 21.496 9.949 21.616 10.344 21.66 C 10.407 21.668 10.47 21.673 10.533 21.676 L 10.584 21.677 L 10.576 21.677 L 10.592 21.678 L 10.614 21.679 L 10.628 21.679 L 10.696 21.68 L 10.805 21.678 C 10.844 21.677 10.882 21.675 10.92 21.672 L 10.993 21.666 C 11.226 21.644 11.455 21.596 11.677 21.522 C 12.095 21.384 12.479 21.159 12.803 20.861 C 13.449 20.273 13.816 19.441 13.815 18.569 C 13.816 17.685 13.439 16.843 12.778 16.254 L 12.72 16.204 C 12.533 16.044 12.328 15.908 12.109 15.796 L 12.093 15.787 C 11.995 15.738 11.895 15.694 11.793 15.656 L 11.764 15.646 L 11.72 15.63 L 11.659 15.609 L 11.617 15.596 L 11.582 15.586 C 11.295 15.5 10.996 15.457 10.696 15.458 L 10.637 15.458 L 10.577 15.46 C 10.388 15.467 10.199 15.492 10.014 15.533 L 9.945 15.549 C 9.91 15.558 9.874 15.567 9.839 15.577 L 9.782 15.594 C 9.713 15.615 9.644 15.639 9.577 15.665 L 9.565 15.669 L 9.55 15.675 C 9.349 15.754 9.157 15.855 8.977 15.974 L 8.926 16.008 L 8.898 16.028 C 8.737 16.141 8.587 16.27 8.451 16.411 Z M 10.872 9.049 L 10.498 9.049 C 9.927 9.05 9.38 9.277 8.976 9.681 C 8.573 10.084 8.348 10.63 8.349 11.2 L 8.353 14.152 C 8.353 14.217 8.386 14.277 8.441 14.311 C 8.497 14.346 8.565 14.349 8.624 14.32 L 8.7 14.283 C 8.781 14.243 8.865 14.206 8.949 14.172 C 9.505 13.952 10.098 13.839 10.696 13.84 C 11.325 13.84 11.926 13.963 12.476 14.185 C 12.521 14.204 12.574 14.227 12.634 14.255 L 12.764 14.318 C 12.822 14.346 12.891 14.342 12.945 14.308 C 13 14.274 13.033 14.214 13.033 14.15 L 13.028 11.192 L 13.026 11.096 C 12.973 9.949 12.023 9.047 10.872 9.048 Z" fill="white"/>
</svg>
