<svg id="visual" viewBox="0 0 960 540" width="960" height="540" xmlns="http://www.w3.org/2000/svg" xmlns:xlink="http://www.w3.org/1999/xlink" version="1.1"><path d="M0 302L137 302L137 339L274 339L274 300L411 300L411 346L549 346L549 268L686 268L686 335L823 335L823 266L960 266L960 338L960 0L960 0L823 0L823 0L686 0L686 0L549 0L549 0L411 0L411 0L274 0L274 0L137 0L137 0L0 0Z" fill="#5e71de"></path><path d="M0 242L137 242L137 269L274 269L274 295L411 295L411 301L549 301L549 256L686 256L686 265L823 265L823 276L960 276L960 230L960 0L960 0L823 0L823 0L686 0L686 0L549 0L549 0L411 0L411 0L274 0L274 0L137 0L137 0L0 0Z" fill="#5468dc"></path><path d="M0 181L137 181L137 149L274 149L274 223L411 223L411 194L549 194L549 156L686 156L686 223L823 223L823 148L960 148L960 187L960 0L960 0L823 0L823 0L686 0L686 0L549 0L549 0L411 0L411 0L274 0L274 0L137 0L137 0L0 0Z" fill="#495eda"></path><path d="M0 93L137 93L137 98L274 98L274 153L411 153L411 113L549 113L549 173L686 173L686 108L823 108L823 145L960 145L960 173L960 0L960 0L823 0L823 0L686 0L686 0L549 0L549 0L411 0L411 0L274 0L274 0L137 0L137 0L0 0Z" fill="#3e54d8"></path><path d="M0 106L137 106L137 45L274 45L274 79L411 79L411 84L549 84L549 95L686 95L686 101L823 101L823 83L960 83L960 81L960 0L960 0L823 0L823 0L686 0L686 0L549 0L549 0L411 0L411 0L274 0L274 0L137 0L137 0L0 0Z" fill="#324ad5"></path></svg>