<svg xmlns="http://www.w3.org/2000/svg" viewBox="0 0 17.277 15.875"><path fill="#70b347" d="m8.576 7.038.26.416.991-.65-.231-.313zM10.582 5.9l.181.304.855-.448-.14-.255zM12.46 5.131l.107.257.768-.24-.062-.22zM14.15 4.743l.025.2.657-.085-.017-.184zM15.685 4.61l-.003.161.483-.023.004-.145z"/><path fill="#70b347" d="m8.467 6.012-.087.045-.047-.087c-1.304-2.457-1.21-4.952-1.1-5.963L7.035.006C6.7 2.38 7.22 4.558 8.27 6.524a14.67 14.67 0 0 1 8.944-1.998v-.033c-4.132-.83-8.7 1.495-8.746 1.52"/><path fill="#70b347" d="M8.464 5.791c.66-.32 4.879-2.261 8.75-1.502l.001-.115c.015-2.255-1.832-4.155-4.087-4.17L7.434.008c-.108.955-.216 3.376 1.03 5.783M9.885 8.25l-.041-.065.05-.056c1.09-1.203 3.243-2.733 7.316-3.209v-.07c-3.415-.042-5.992 1.263-7.936 3.285 2.003 2.796 5.14 5.25 8.003 6.991v-.618c-5.245-3.079-7.372-6.227-7.392-6.259"/><path fill="#70b347" d="M10.095 8.205c.309.448 2.458 3.2 7.17 5.988l-.057-9.072c-3.93.464-6.033 1.919-7.113 3.084"/><path fill="#196db3" d="M6.382 13.814c.356-.931.723-1.894.94-2.384l.089-.2.092.198c.015.033.522 1.56 2.76 4.447h.474c-1.493-1.869-2.555-3.645-3.31-5.338-1.003 1.618-1.771 3.474-2.345 5.338h.492c.196-.463.53-1.336.808-2.061"/><path fill="#196db3" d="M6.568 13.885c-.39 1.023-.625 1.639-.772 1.99h4.191c-1.046-1.087-2.228-3.452-2.57-4.163a87 87 0 0 0-.85 2.173M8.433 9.405l.393-.317.774 1.062-.454.29zM9.634 11.122l.464-.299.81 1.036-.491.325zM11.027 12.82l.452-.28 1.152 1.12-.57.351zM12.873 14.763l.534-.317 1.62 1.428h-1zM7.16 6.962l.382-.212-.352-.988-.371.128zM6.59 5.12 7 5.04l-.215-.93-.334.031zM6.36 3.44l.362-.018-.082-.813-.28.001zM6.385 1.868l.287.019.011-.712-.213-.015zM5.741 7.539A13.55 13.55 0 0 1 6.094 0L4.109.004C1.854-.01.015 1.77 0 4.025v7.688c-.004.706.115 1.371.429 1.955 1.65-3.056 4.876-5.77 5.312-6.13"/><path fill="#196db3" d="M6.406.002h-.105a13.36 13.36 0 0 0-.352 7.55l.015.062-.049.04c-.039.03-3.65 2.948-5.37 6.218q.162.265.359.502c1.741-2.981 3.635-5.107 5.538-6.602-.804-3.028-.603-5.66-.036-7.77M6.648 8.979l.234.546-.907 1.07-.415-.418zM4.77 11.207l.364.387-.871 1.351-.457-.49zM2.99 13.61l.416.463-.91 1.544-.636-.502z"/></svg>
