<svg xmlns="http://www.w3.org/2000/svg" viewBox="0 0 117.68 117.67"><path fill="#fff" d="M0 0h117.68v117.67H0z"/><path fill-rule="evenodd" d="M86.17 3.98s-4.94 1.05-7.58 1.85c-5.83 1.77-9.41 3.69-14.06 6.35-.95.55-1.98 1.06-3.17 1.93-.82.6-2.81 1.8-2.95 2.27-.11.4.23 1.18.23 1.82-.01 3.29-2.33 5.73-4.31 7.03-.86.57-1.54.79-1.59 1.59-.05 1 1.17 1.84 1.59 2.16.76.57 1.5 1.12 1.93 1.81 1.98 3.15 2.83 8.09 2.83 12.81 0 1.62-.35 3.74.12 5.1.38 1.11 1.93 1.48 2.83 2.61.78.98 1.42 3.02.45 4.08-.77.85-2.43.3-4.3.56-1.27.18-3.27 1.04-3.97 1.82-1.14 1.27-.8 2.82-2.15 3.63-.95.57-3.82.24-3.85 1.47-.03 1.37 2.7.95 3.18 1.81.44.8.28 2.51 0 3.4-.32.99-1.52 2.23-2.27 2.61-1.14.58-2.58.48-3.29 1.02-1.22.93-1.4 3.45-2.15 4.65-.37.58-.85.55-1.25.91-1.94 1.76.09 6.83 1.47 7.71.63.41 2.78 1.1 4.19.68 1.47-.43 1.85-2.63 3.4-3.51.25-.14.6-.34.91-.45 2.49-.83 4.49.51 6.46.34 1.3-.11 1.99-1.17 3.62-1.47 2.44-.44 8.06.39 8.39 1.93.2.92-.92 2.57-1.25 2.95-.49.57-1.48 1.15-2.27 1.59-1.94 1.09-4.71 1.55-7.48 1.82-1.97.18-3.96-.3-4.99.45-.71.52-.6 1.98-.45 2.95.45 2.97 2.09 2.78 5.32 3.06 4.63.4 11.72-1.49 12.92 2.27.36 1.15.2 3.58-.46 4.54-.93 1.37-2.79 1.28-4.99 1.81-1.93.47-4.15 1.83-6.46 1.93-2.05.09-4.26-.53-5.66-1.36-2.96-1.73-4.29-5.66-6.46-8.05-1.38-1.52-3.38-2.63-4.76-3.97-1.61-1.56-2.67-3.6-3.97-5.55-2.48-3.72-5.37-7.83-7.14-11.9-.97-2.23-1.72-4.6-2.38-7.14-.68-2.59-1.13-5.08-2.04-7.48-1.74-4.55-3.71-9.19-4.08-14.96-.19-2.98.13-6.1-.34-9.07-.29-1.89-1.47-3.35-1.47-5.56 0-1.13.3-2.19.34-3.28.04-1.11-.13-2.24-.23-3.4-.57-6.51-1.32-12.78-1.28-20.09H4.13v109.49h109.48V3.98zm-5.975 9.166c1.152.04 2.561.564 3.725 1.264 1.1.66 3.36 2.36 3.17 3.17-.24 1.02-2.45 1.26-3.97 1.7-2.78.8-5.67 1.6-8.73 2.38-1.26.32-3.91 1.16-4.42.45-1.03-1.45 2.75-4.19 3.4-4.76 1.97-1.72 3.6-3.91 6.35-4.19q.229-.023.475-.014M34.773 22a10 10 0 0 0-.953.07v-.02c-1.98.26-2.01 1.28-3.06 2.5-.66.77-2.11 1.29-1.81 2.38.46 1.68 6.35.52 5.89 3.51-.29 1.89-4.16 1.37-5.67 2.61-.33.28-1.61 2.6-1.36 3.29.38 1.08 2.12.39 2.72.12.78-.34 2.01-1.15 2.61-1.13 1.31.06 2.58 2.16 4.42 2.38 2.73.34 6.29-2.25 6.69-3.85.2-.78-.06-1.9-.11-2.95-.05-1.08.11-2.21.11-3.06-.01-2.39-1.28-3.57-2.95-4.42-1.662-.85-4.25-1.49-6.527-1.43m40.565 3.56c.794-.03 1.656-.01 2.021.15.6.27 1.421 2.04 2.721 2.27.807.15 1.714-.031 2.373-.22v-.002l.002-.002c.033-.056.657-.503 1.025-.227.75.57-.99 1.7-.34 2.49.67.83 2.41-.338 3.29-.558 2.83-.73 7.94-1.04 10.09.45.93.64 1.82 2.548 1.82 4.538 0 5.25-3.57 9.722-4.08 16.102-.68 8.29-.31 15.52-2.16 22.11-.37 1.29-1.08 3.04-2.27 3.06-1.62.03-1.81-2.47-2.27-3.74-1.33-3.69-4.13-3.83-8.05-5.1-2.09-.68-4.25-1.33-5.67-2.16-.32-.18-1.99-1.231-2.04-2.041-.08-1.28 1.95-2.07 2.72-3.4.87-1.49.78-2.6 1.7-3.06 1.38-.68 3.38.73 3.51-1.47.03-.5-.17-.98-.34-1.36-1.22-2.62-8.13-5.16-7.71-10.54.09-1.1.93-2.47.68-3.85-.36-1.96-2.55-2.71-2.27-5.33.16-1.53 1.29-1.93 1.92-3.4l.02-.02c.65-1.51.43-3.97 1.7-4.54.09-.04.814-.12 1.608-.15M69.96 50.21c3.54-.09 3.728 5.75.568 7.37-1.26.65-4.32 1.02-5.1-.11-.74-1.08.171-3.24.801-4.31l-.01-.01c.88-1.48 1.94-2.89 3.74-2.94m-24.512 9q-.133.001-.299.04v.01c-.83.19-3.26 4.12-3.06 5.1.11.53.81.95 1.36.9.78-.07 1.32-1.16 1.81-2.27.497-1.097 1.522-3.785.19-3.78m14.762 12.962c1.09.042 2.078.289 3.398.709.57.18 2.661.709 2.381 1.469-.24.67-2.95.35-3.85.57-.52.13-1.06.36-1.47.57-.83.43-1.37 1.35-2.26 1.59-2.17.57-3.29-1.1-5.67-.68-.71.13-1.87 1.07-2.72 1.48-1.96.94-.58-1.46.34-2.27l-.02-.01c2.15-1.88 5.3-3.13 8.73-3.4a10 10 0 0 1 1.14-.028"/></svg>
