<svg xmlns="http://www.w3.org/2000/svg" width="81.367" height="58.445" viewBox="0 0 81.367 58.445"><path fill="#9ab6d3" fill-rule="evenodd" d="m81.367 0-.804 6.553h-42.17c-4.474 0-8.545 3.625-9.094 8.096-.547 4.474 2.631 8.098 7.104 8.098l6.096-.02c1.097 0 1.874.889 1.74 1.985s-1.132 1.984-2.226 1.984l-2.78.001H0L3.279 0ZM27.969 32.809l11.265-.004 2.026.004c4.472 0 8.542-3.625 9.092-8.097.549-4.473-2.631-8.098-7.103-8.098s-5 .02-6.096.02-1.875-.888-1.74-1.985c.133-1.094 1.13-1.982 2.227-1.982h42.172l-1.723 14.03H54.756l-3.897 31.748H19.434L22.58 32.81z"/></svg>
