<svg xmlns="http://www.w3.org/2000/svg" viewBox="0 0 960 540">
  <path fill="none" stroke="#324AD5" stroke-width="20" d="M929.2 237.7c11.2 34.2 1.4 75.3-24 93.5-25.5 18.2-66.7 13.6-95.5-7.5-28.8-21.1-45-58.5-35.6-90.4a85.6 85.6 0 0 1 78.3-57.5c33.6.5 65.7 27.8 76.8 61.9Zm46.6 238.7a47 47 0 0 1-15.5 50.4 47.3 47.3 0 0 1-52.8-.9c-16.7-11.2-28.1-33.4-22.7-52.6a51.5 51.5 0 0 1 47.8-34.5c20.1.8 37.7 18.4 43.2 37.6ZM306.4 167.5c4.9 16-5.4 36.2-21.6 47.9-16.2 11.7-38.3 14.9-51.2 5.5-12.8-9.4-16.4-31.3-10.3-49a45.7 45.7 0 0 1 39.9-31.7c18-.8 38.2 11.2 43.2 27.3Zm-148 238.9c5.7 18.5-4.1 41.3-21.4 53.8-17.3 12.6-42 15-57.6 3.9-15.6-11.1-22.1-35.7-15.5-55.4a52.1 52.1 0 0 1 46.9-34.8c20.5-.2 41.8 14 47.6 32.5Z"/>
</svg>
