<svg id="visual" viewBox="0 0 960 540" width="960" height="540" xmlns="http://www.w3.org/2000/svg" xmlns:xlink="http://www.w3.org/1999/xlink" version="1.1"><rect width="960" height="540" fill="#262626"></rect><g><g transform="translate(854 262)"><path d="M75.2 -24.3C86.4 9.9 76.6 51 51.2 69.2C25.7 87.4 -15.5 82.8 -44.3 61.7C-73.1 40.6 -89.3 3.2 -79.9 -28.7C-70.4 -60.5 -35.2 -86.7 -1.6 -86.2C32 -85.7 64.1 -58.4 75.2 -24.3Z" stroke="#324AD5" fill="none" stroke-width="20"></path></g><g transform="translate(935 492)"><path d="M40.8 -15.6C46.3 3.6 39.6 24.4 25.3 34.8C11 45.1 -10.8 45.1 -27.5 33.9C-44.2 22.7 -55.6 0.5 -50.2 -18.7C-44.7 -37.9 -22.4 -54 -2.4 -53.2C17.7 -52.4 35.3 -34.8 40.8 -15.6Z" stroke="#324AD5" fill="none" stroke-width="20"></path></g><g transform="translate(261 183)"><path d="M45.4 -15.5C50.3 0.5 40 20.7 23.8 32.4C7.6 44.1 -14.5 47.3 -27.4 37.9C-40.2 28.5 -43.8 6.6 -37.7 -11.1C-31.6 -28.8 -15.8 -42.1 2.2 -42.8C20.2 -43.6 40.4 -31.6 45.4 -15.5Z" stroke="#324AD5" fill="none" stroke-width="20"></path></g><g transform="translate(110 423)"><path d="M48.4 -16.6C54.1 1.9 44.3 24.7 27 37.2C9.7 49.8 -15 52.2 -30.6 41.1C-46.2 30 -52.7 5.4 -46.1 -14.3C-39.5 -34 -19.7 -48.8 0.8 -49.1C21.3 -49.3 42.6 -35.1 48.4 -16.6Z" stroke="#324AD5" fill="none" stroke-width="20"></path></g></g></svg>