<?xml version="1.0" encoding="utf-8"?>
<svg width="1024px" height="1024px" viewBox="0 0 1024 1024" version="1.1" xmlns:xlink="http://www.w3.org/1999/xlink" xmlns="http://www.w3.org/2000/svg">
  <defs>
    <path d="M64 512C64 264.576 264.576 64 512 64C759.424 64 960 264.576 960 512C960 759.424 759.424 960 512 960C264.576 960 64 759.424 64 512Z" id="path_1" />
    <path d="M160 512C160 317.596 317.596 160 512 160C706.404 160 864 317.596 864 512C864 706.404 706.404 864 512 864C317.596 864 160 706.404 160 512Z" id="path_2" />
    <rect width="1024" height="1024" id="artboard_1" />
    <clipPath id="clip_1">
      <use xlink:href="#artboard_1" clip-rule="evenodd" />
    </clipPath>
    <clipPath id="clip_2">
      <use xlink:href="#path_1" />
    </clipPath>
    <clipPath id="clip_3">
      <use xlink:href="#path_2" />
    </clipPath>
  </defs>
  <g id="Icon" clip-path="url(#clip_1)">
    <use xlink:href="#artboard_1" stroke="none" fill="#5E71DE" />
    <path d="M0 512C0 229.23 229.23 0 512 0C794.77 0 1024 229.23 1024 512C1024 794.77 794.77 1024 512 1024C229.23 1024 0 794.77 0 512Z" id="Ellipse" fill="#324AD5" fill-rule="evenodd" stroke="none" />
    <g id="Ellipse-2">
      <g clip-path="url(#clip_2)">
        <use xlink:href="#path_1" fill="none" stroke="#FFFFFF" stroke-width="64" />
      </g>
    </g>
    <g id="Ellipse-3">
      <g clip-path="url(#clip_3)">
        <use xlink:href="#path_2" fill="none" stroke="#FFFFFF" stroke-width="64" />
      </g>
    </g>
    <path d="M447.999 320L576.001 320Q579.143 320 582.282 320.154Q585.42 320.308 588.547 320.616Q591.674 320.924 594.782 321.385Q597.891 321.846 600.972 322.459Q604.054 323.073 607.102 323.836Q610.15 324.599 613.157 325.512Q616.164 326.424 619.122 327.482Q622.081 328.541 624.984 329.743Q627.887 330.946 630.727 332.289Q633.568 333.633 636.339 335.114Q639.11 336.595 641.806 338.211Q644.501 339.826 647.113 341.572Q649.726 343.317 652.25 345.189Q654.774 347.061 657.203 349.054Q659.632 351.048 661.96 353.158Q664.288 355.268 666.51 357.49Q668.732 359.712 670.842 362.04Q672.952 364.368 674.946 366.797Q676.939 369.226 678.811 371.75Q680.682 374.274 682.428 376.887Q684.174 379.499 685.789 382.194Q687.405 384.889 688.886 387.661Q690.367 390.432 691.711 393.272Q693.054 396.113 694.257 399.016Q695.459 401.919 696.518 404.877Q697.576 407.836 698.488 410.843Q699.4 413.85 700.164 416.898Q700.927 419.946 701.54 423.028Q702.153 426.109 702.615 429.218Q703.076 432.326 703.384 435.453Q703.692 438.58 703.846 441.718Q704 444.857 704 447.999L704 576.001Q704 579.143 703.846 582.282Q703.692 585.42 703.384 588.547Q703.076 591.674 702.615 594.782Q702.153 597.891 701.54 600.972Q700.927 604.054 700.164 607.102Q699.4 610.15 698.488 613.157Q697.576 616.164 696.518 619.122Q695.459 622.081 694.257 624.984Q693.054 627.887 691.711 630.727Q690.367 633.568 688.886 636.339Q687.405 639.11 685.789 641.806Q684.174 644.501 682.428 647.113Q680.682 649.726 678.811 652.25Q676.939 654.774 674.946 657.203Q672.952 659.632 670.842 661.96Q668.732 664.288 666.51 666.51Q664.288 668.732 661.96 670.842Q659.632 672.952 657.203 674.946Q654.774 676.939 652.25 678.811Q649.726 680.682 647.113 682.428Q644.501 684.174 641.806 685.789Q639.11 687.405 636.339 688.886Q633.568 690.367 630.727 691.711Q627.887 693.054 624.984 694.257Q622.081 695.459 619.122 696.518Q616.164 697.576 613.157 698.488Q610.15 699.4 607.102 700.164Q604.054 700.927 600.972 701.54Q597.891 702.153 594.782 702.615Q591.674 703.076 588.547 703.384Q585.42 703.692 582.282 703.846Q579.143 704 576.001 704L447.999 704Q444.857 704 441.718 703.846Q438.58 703.692 435.453 703.384Q432.326 703.076 429.218 702.615Q426.109 702.153 423.028 701.54Q419.946 700.927 416.898 700.164Q413.85 699.4 410.843 698.488Q407.836 697.576 404.877 696.518Q401.919 695.459 399.016 694.257Q396.113 693.054 393.272 691.711Q390.432 690.367 387.661 688.886Q384.889 687.405 382.194 685.789Q379.499 684.174 376.887 682.428Q374.274 680.682 371.75 678.811Q369.226 676.939 366.797 674.946Q364.368 672.952 362.04 670.842Q359.712 668.732 357.49 666.51Q355.268 664.288 353.158 661.96Q351.048 659.632 349.054 657.203Q347.061 654.774 345.189 652.25Q343.317 649.726 341.572 647.113Q339.826 644.501 338.211 641.806Q336.595 639.11 335.114 636.339Q333.633 633.568 332.289 630.727Q330.946 627.887 329.743 624.984Q328.541 622.081 327.482 619.122Q326.424 616.164 325.512 613.157Q324.599 610.15 323.836 607.102Q323.072 604.054 322.459 600.972Q321.846 597.891 321.385 594.782Q320.924 591.674 320.616 588.547Q320.308 585.42 320.154 582.282Q320 579.143 320 576.001L320 447.999Q320 444.857 320.154 441.718Q320.308 438.58 320.616 435.453Q320.924 432.326 321.385 429.218Q321.846 426.109 322.459 423.028Q323.072 419.946 323.836 416.898Q324.599 413.85 325.512 410.843Q326.424 407.836 327.482 404.877Q328.541 401.919 329.743 399.016Q330.946 396.113 332.289 393.272Q333.633 390.432 335.114 387.661Q336.595 384.889 338.211 382.194Q339.826 379.499 341.572 376.887Q343.317 374.274 345.189 371.75Q347.061 369.226 349.054 366.797Q351.048 364.368 353.158 362.04Q355.268 359.712 357.49 357.49Q359.712 355.268 362.04 353.158Q364.368 351.048 366.797 349.054Q369.226 347.061 371.75 345.189Q374.274 343.317 376.887 341.572Q379.499 339.826 382.194 338.211Q384.889 336.595 387.661 335.114Q390.432 333.633 393.272 332.289Q396.113 330.946 399.016 329.743Q401.919 328.541 404.877 327.482Q407.836 326.424 410.843 325.512Q413.85 324.599 416.898 323.836Q419.946 323.073 423.028 322.459Q426.109 321.846 429.218 321.385Q432.326 320.924 435.453 320.616Q438.58 320.308 441.718 320.154Q444.857 320 447.999 320L447.999 320Z" id="Rectangle" fill="#FFFFFF" fill-rule="evenodd" stroke="none" />
  </g>
</svg>
