<svg id="visual" viewBox="0 0 960 540" width="960" height="540" xmlns="http://www.w3.org/2000/svg" xmlns:xlink="http://www.w3.org/1999/xlink" version="1.1"><g stroke-width="1" stroke-linejoin="bevel"><path d="M451.7 230L530.3 303L516.3 206Z" fill="#495eda" stroke="#FFFFFF"></path><path d="M422.7 354L512.3 364L530.3 303Z" fill="#5266dc" stroke="#FFFFFF"></path><path d="M608 399L608 287L530.3 303Z" fill="#5669dd" stroke="#FFFFFF"></path><path d="M530.3 303L608 287L516.3 206Z" fill="#324ad5" stroke="#FFFFFF"></path><path d="M451.7 230L422.7 354L530.3 303Z" fill="#495eda" stroke="#FFFFFF"></path><path d="M412.7 125L389.7 183L451.7 230Z" fill="#374ed6" stroke="#FFFFFF"></path><path d="M451.7 230L320 240L422.7 354Z" fill="#324ad5" stroke="#FFFFFF"></path><path d="M625 170L526.3 108L516.3 206Z" fill="#5266dc" stroke="#FFFFFF"></path><path d="M516.3 206L412.7 125L451.7 230Z" fill="#374ed6" stroke="#FFFFFF"></path><path d="M608 287L625 170L516.3 206Z" fill="#324ad5" stroke="#FFFFFF"></path><path d="M526.3 108L412.7 125L516.3 206Z" fill="#5a6ddd" stroke="#FFFFFF"></path><path d="M604 420L608 399L512.3 364Z" fill="#324ad5" stroke="#FFFFFF"></path><path d="M512.3 364L608 399L530.3 303Z" fill="#495eda" stroke="#FFFFFF"></path><path d="M608 287L735.7 173L625 170Z" fill="#495eda" stroke="#FFFFFF"></path><path d="M322 156L320 240L389.7 183Z" fill="#3c52d7" stroke="#FFFFFF"></path><path d="M389.7 183L320 240L451.7 230Z" fill="#5266dc" stroke="#FFFFFF"></path><path d="M320 240L355 385L422.7 354Z" fill="#455ad9" stroke="#FFFFFF"></path><path d="M422.7 354L445.7 457L512.3 364Z" fill="#5e71de" stroke="#FFFFFF"></path><path d="M544.3 486L604 420L512.3 364Z" fill="#5e71de" stroke="#FFFFFF"></path><path d="M412.7 125L322 156L389.7 183Z" fill="#5266dc" stroke="#FFFFFF"></path><path d="M355 385L445.7 457L422.7 354Z" fill="#5266dc" stroke="#FFFFFF"></path><path d="M781.7 433L708.7 323L608 399Z" fill="#5a6ddd" stroke="#FFFFFF"></path><path d="M608 399L708.7 323L608 287Z" fill="#5e71de" stroke="#FFFFFF"></path><path d="M445.7 457L544.3 486L512.3 364Z" fill="#4d62db" stroke="#FFFFFF"></path><path d="M852.3 349L781.7 273L708.7 323Z" fill="#324ad5" stroke="#FFFFFF"></path><path d="M735.7 173L625 54L625 170Z" fill="#3c52d7" stroke="#FFFFFF"></path><path d="M625 170L625 54L526.3 108Z" fill="#495eda" stroke="#FFFFFF"></path><path d="M401.7 0L341 55L412.7 125Z" fill="#4d62db" stroke="#FFFFFF"></path><path d="M708.7 323L735.7 173L608 287Z" fill="#5669dd" stroke="#FFFFFF"></path><path d="M322 156L244.3 241L320 240Z" fill="#4d62db" stroke="#FFFFFF"></path><path d="M320 240L244.3 241L355 385Z" fill="#5669dd" stroke="#FFFFFF"></path><path d="M499.3 0L412.7 125L526.3 108Z" fill="#324ad5" stroke="#FFFFFF"></path><path d="M412.7 125L341 55L322 156Z" fill="#495eda" stroke="#FFFFFF"></path><path d="M322 156L198.3 170L244.3 241Z" fill="#5e71de" stroke="#FFFFFF"></path><path d="M625 54L499.3 0L526.3 108Z" fill="#455ad9" stroke="#FFFFFF"></path><path d="M499.3 0L401.7 0L412.7 125Z" fill="#455ad9" stroke="#FFFFFF"></path><path d="M445.7 457L505.3 540L544.3 486Z" fill="#374ed6" stroke="#FFFFFF"></path><path d="M544.3 486L665 540L604 420Z" fill="#5e71de" stroke="#FFFFFF"></path><path d="M455.7 540L505.3 540L445.7 457Z" fill="#5266dc" stroke="#FFFFFF"></path><path d="M781.7 433L608 399L604 420Z" fill="#455ad9" stroke="#FFFFFF"></path><path d="M708.7 323L781.7 273L735.7 173Z" fill="#4d62db" stroke="#FFFFFF"></path><path d="M326 540L445.7 457L355 385Z" fill="#5e71de" stroke="#FFFFFF"></path><path d="M326 540L455.7 540L445.7 457Z" fill="#4d62db" stroke="#FFFFFF"></path><path d="M725.7 0L643 0L625 54Z" fill="#455ad9" stroke="#FFFFFF"></path><path d="M625 54L643 0L499.3 0Z" fill="#5e71de" stroke="#FFFFFF"></path><path d="M341 55L221.3 128L322 156Z" fill="#5a6ddd" stroke="#FFFFFF"></path><path d="M285 0L221.3 128L341 55Z" fill="#4d62db" stroke="#FFFFFF"></path><path d="M220.3 399L282 481L355 385Z" fill="#5669dd" stroke="#FFFFFF"></path><path d="M220.3 399L355 385L244.3 241Z" fill="#5e71de" stroke="#FFFFFF"></path><path d="M67.7 327L220.3 399L244.3 241Z" fill="#5266dc" stroke="#FFFFFF"></path><path d="M221.3 128L198.3 170L322 156Z" fill="#5266dc" stroke="#FFFFFF"></path><path d="M851.3 105L776.7 94L735.7 173Z" fill="#5669dd" stroke="#FFFFFF"></path><path d="M735.7 173L776.7 94L625 54Z" fill="#5669dd" stroke="#FFFFFF"></path><path d="M505.3 540L665 540L544.3 486Z" fill="#5a6ddd" stroke="#FFFFFF"></path><path d="M211.3 540L326 540L282 481Z" fill="#4d62db" stroke="#FFFFFF"></path><path d="M282 481L326 540L355 385Z" fill="#495eda" stroke="#FFFFFF"></path><path d="M709.7 540L781.7 433L604 420Z" fill="#4056d8" stroke="#FFFFFF"></path><path d="M401.7 0L285 0L341 55Z" fill="#5669dd" stroke="#FFFFFF"></path><path d="M103.7 126L134.7 195L198.3 170Z" fill="#455ad9" stroke="#FFFFFF"></path><path d="M776.7 94L725.7 0L625 54Z" fill="#495eda" stroke="#FFFFFF"></path><path d="M852.3 349L847.3 240L781.7 273Z" fill="#3c52d7" stroke="#FFFFFF"></path><path d="M781.7 273L847.3 240L735.7 173Z" fill="#3c52d7" stroke="#FFFFFF"></path><path d="M665 540L709.7 540L604 420Z" fill="#5a6ddd" stroke="#FFFFFF"></path><path d="M135.7 471L216.3 483L220.3 399Z" fill="#5a6ddd" stroke="#FFFFFF"></path><path d="M220.3 399L216.3 483L282 481Z" fill="#455ad9" stroke="#FFFFFF"></path><path d="M781.7 433L852.3 349L708.7 323Z" fill="#324ad5" stroke="#FFFFFF"></path><path d="M824.3 430L852.3 349L781.7 433Z" fill="#374ed6" stroke="#FFFFFF"></path><path d="M825.3 540L824.3 430L781.7 433Z" fill="#5669dd" stroke="#FFFFFF"></path><path d="M960 204L863.3 203L847.3 240Z" fill="#4d62db" stroke="#FFFFFF"></path><path d="M847.3 240L863.3 203L735.7 173Z" fill="#455ad9" stroke="#FFFFFF"></path><path d="M776.7 94L859.3 0L725.7 0Z" fill="#324ad5" stroke="#FFFFFF"></path><path d="M103.7 126L198.3 170L221.3 128Z" fill="#5a6ddd" stroke="#FFFFFF"></path><path d="M198.3 170L134.7 195L244.3 241Z" fill="#324ad5" stroke="#FFFFFF"></path><path d="M285 0L223.3 0L221.3 128Z" fill="#495eda" stroke="#FFFFFF"></path><path d="M863.3 203L851.3 105L735.7 173Z" fill="#455ad9" stroke="#FFFFFF"></path><path d="M216.3 483L211.3 540L282 481Z" fill="#374ed6" stroke="#FFFFFF"></path><path d="M135.7 471L211.3 540L216.3 483Z" fill="#5266dc" stroke="#FFFFFF"></path><path d="M133.7 0L103.7 126L221.3 128Z" fill="#495eda" stroke="#FFFFFF"></path><path d="M67.7 327L135.7 471L220.3 399Z" fill="#455ad9" stroke="#FFFFFF"></path><path d="M67.7 327L244.3 241L134.7 195Z" fill="#495eda" stroke="#FFFFFF"></path><path d="M103.7 126L68.7 236L134.7 195Z" fill="#4056d8" stroke="#FFFFFF"></path><path d="M709.7 540L825.3 540L781.7 433Z" fill="#4d62db" stroke="#FFFFFF"></path><path d="M960 362L960 292L852.3 349Z" fill="#455ad9" stroke="#FFFFFF"></path><path d="M68.7 236L67.7 327L134.7 195Z" fill="#455ad9" stroke="#FFFFFF"></path><path d="M960 50L859.3 0L851.3 105Z" fill="#5a6ddd" stroke="#FFFFFF"></path><path d="M851.3 105L859.3 0L776.7 94Z" fill="#5266dc" stroke="#FFFFFF"></path><path d="M0 187L0 306L68.7 236Z" fill="#5266dc" stroke="#FFFFFF"></path><path d="M223.3 0L133.7 0L221.3 128Z" fill="#5266dc" stroke="#FFFFFF"></path><path d="M852.3 349L960 292L847.3 240Z" fill="#3c52d7" stroke="#FFFFFF"></path><path d="M863.3 203L960 204L851.3 105Z" fill="#4d62db" stroke="#FFFFFF"></path><path d="M960 362L852.3 349L960 426Z" fill="#4056d8" stroke="#FFFFFF"></path><path d="M960 292L960 204L847.3 240Z" fill="#374ed6" stroke="#FFFFFF"></path><path d="M960 426L852.3 349L824.3 430Z" fill="#495eda" stroke="#FFFFFF"></path><path d="M960 540L960 426L824.3 430Z" fill="#455ad9" stroke="#FFFFFF"></path><path d="M68.7 236L0 306L67.7 327Z" fill="#495eda" stroke="#FFFFFF"></path><path d="M0 444L83.7 540L135.7 471Z" fill="#5669dd" stroke="#FFFFFF"></path><path d="M0 187L68.7 236L103.7 126Z" fill="#4d62db" stroke="#FFFFFF"></path><path d="M0 444L135.7 471L67.7 327Z" fill="#5266dc" stroke="#FFFFFF"></path><path d="M135.7 471L83.7 540L211.3 540Z" fill="#3c52d7" stroke="#FFFFFF"></path><path d="M0 306L0 328L67.7 327Z" fill="#5e71de" stroke="#FFFFFF"></path><path d="M0 84L0 187L103.7 126Z" fill="#5a6ddd" stroke="#FFFFFF"></path><path d="M960 204L960 50L851.3 105Z" fill="#3c52d7" stroke="#FFFFFF"></path><path d="M133.7 0L0 84L103.7 126Z" fill="#3c52d7" stroke="#FFFFFF"></path><path d="M960 50L960 0L859.3 0Z" fill="#324ad5" stroke="#FFFFFF"></path><path d="M0 328L0 444L67.7 327Z" fill="#5e71de" stroke="#FFFFFF"></path><path d="M825.3 540L960 540L824.3 430Z" fill="#495eda" stroke="#FFFFFF"></path><path d="M133.7 0L0 0L0 84Z" fill="#5669dd" stroke="#FFFFFF"></path><path d="M0 444L0 540L83.7 540Z" fill="#495eda" stroke="#FFFFFF"></path></g></svg>