<svg id="visual" viewBox="0 0 1920 1080" width="1920" height="1080" xmlns="http://www.w3.org/2000/svg" xmlns:xlink="http://www.w3.org/1999/xlink" version="1.1"><path d="M0 141L29.2 135.7C58.3 130.3 116.7 119.7 174.8 118C233 116.3 291 123.7 349.2 112.8C407.3 102 465.7 73 523.8 73C582 73 640 102 698.2 109.2C756.3 116.3 814.7 101.7 872.8 98C931 94.3 989 101.7 1047.2 100C1105.3 98.3 1163.7 87.7 1221.8 78.7C1280 69.7 1338 62.3 1396.2 62.3C1454.3 62.3 1512.7 69.7 1570.8 69.7C1629 69.7 1687 62.3 1745.2 65.8C1803.3 69.3 1861.7 83.7 1890.8 90.8L1920 98L1920 0L1890.8 0C1861.7 0 1803.3 0 1745.2 0C1687 0 1629 0 1570.8 0C1512.7 0 1454.3 0 1396.2 0C1338 0 1280 0 1221.8 0C1163.7 0 1105.3 0 1047.2 0C989 0 931 0 872.8 0C814.7 0 756.3 0 698.2 0C640 0 582 0 523.8 0C465.7 0 407.3 0 349.2 0C291 0 233 0 174.8 0C116.7 0 58.3 0 29.2 0L0 0Z" fill="#6198ff"></path><path d="M0 303L29.2 335.5C58.3 368 116.7 433 174.8 431.3C233 429.7 291 361.3 349.2 346.8C407.3 332.3 465.7 371.7 523.8 404C582 436.3 640 461.7 698.2 443.7C756.3 425.7 814.7 364.3 872.8 333.7C931 303 989 303 1047.2 299.5C1105.3 296 1163.7 289 1221.8 281.8C1280 274.7 1338 267.3 1396.2 292.5C1454.3 317.7 1512.7 375.3 1570.8 377.2C1629 379 1687 325 1745.2 317.8C1803.3 310.7 1861.7 350.3 1890.8 370.2L1920 390L1920 96L1890.8 88.8C1861.7 81.7 1803.3 67.3 1745.2 63.8C1687 60.3 1629 67.7 1570.8 67.7C1512.7 67.7 1454.3 60.3 1396.2 60.3C1338 60.3 1280 67.7 1221.8 76.7C1163.7 85.7 1105.3 96.3 1047.2 98C989 99.7 931 92.3 872.8 96C814.7 99.7 756.3 114.3 698.2 107.2C640 100 582 71 523.8 71C465.7 71 407.3 100 349.2 110.8C291 121.7 233 114.3 174.8 116C116.7 117.7 58.3 128.3 29.2 133.7L0 139Z" fill="#4988ff"></path><path d="M0 649L29.2 647.2C58.3 645.3 116.7 641.7 174.8 641.7C233 641.7 291 645.3 349.2 643.5C407.3 641.7 465.7 634.3 523.8 630.7C582 627 640 627 698.2 632.5C756.3 638 814.7 649 872.8 625.7C931 602.3 989 544.7 1047.2 533.8C1105.3 523 1163.7 559 1221.8 578.8C1280 598.7 1338 602.3 1396.2 606C1454.3 609.7 1512.7 613.3 1570.8 627.7C1629 642 1687 667 1745.2 677.7C1803.3 688.3 1861.7 684.7 1890.8 682.8L1920 681L1920 388L1890.8 368.2C1861.7 348.3 1803.3 308.7 1745.2 315.8C1687 323 1629 377 1570.8 375.2C1512.7 373.3 1454.3 315.7 1396.2 290.5C1338 265.3 1280 272.7 1221.8 279.8C1163.7 287 1105.3 294 1047.2 297.5C989 301 931 301 872.8 331.7C814.7 362.3 756.3 423.7 698.2 441.7C640 459.7 582 434.3 523.8 402C465.7 369.7 407.3 330.3 349.2 344.8C291 359.3 233 427.7 174.8 429.3C116.7 431 58.3 366 29.2 333.5L0 301Z" fill="#2d77ff"></path><path d="M0 714L29.2 721.2C58.3 728.3 116.7 742.7 174.8 739C233 735.3 291 713.7 349.2 713.7C407.3 713.7 465.7 735.3 523.8 744.3C582 753.3 640 749.7 698.2 746C756.3 742.3 814.7 738.7 872.8 717.2C931 695.7 989 656.3 1047.2 642C1105.3 627.7 1163.7 638.3 1221.8 647.3C1280 656.3 1338 663.7 1396.2 669C1454.3 674.3 1512.7 677.7 1570.8 690.2C1629 702.7 1687 724.3 1745.2 733.3C1803.3 742.3 1861.7 738.7 1890.8 736.8L1920 735L1920 679L1890.8 680.8C1861.7 682.7 1803.3 686.3 1745.2 675.7C1687 665 1629 640 1570.8 625.7C1512.7 611.3 1454.3 607.7 1396.2 604C1338 600.3 1280 596.7 1221.8 576.8C1163.7 557 1105.3 521 1047.2 531.8C989 542.7 931 600.3 872.8 623.7C814.7 647 756.3 636 698.2 630.5C640 625 582 625 523.8 628.7C465.7 632.3 407.3 639.7 349.2 641.5C291 643.3 233 639.7 174.8 639.7C116.7 639.7 58.3 643.3 29.2 645.2L0 647Z" fill="#0066ff"></path><path d="M0 865L29.2 863.2C58.3 861.3 116.7 857.7 174.8 859.5C233 861.3 291 868.7 349.2 875.8C407.3 883 465.7 890 523.8 882.8C582 875.7 640 854.3 698.2 856.2C756.3 858 814.7 883 872.8 874C931 865 989 822 1047.2 814.8C1105.3 807.7 1163.7 836.3 1221.8 834.5C1280 832.7 1338 800.3 1396.2 780.5C1454.3 760.7 1512.7 753.3 1570.8 760.5C1629 767.7 1687 789.3 1745.2 809.2C1803.3 829 1861.7 847 1890.8 856L1920 865L1920 733L1890.8 734.8C1861.7 736.7 1803.3 740.3 1745.2 731.3C1687 722.3 1629 700.7 1570.8 688.2C1512.7 675.7 1454.3 672.3 1396.2 667C1338 661.7 1280 654.3 1221.8 645.3C1163.7 636.3 1105.3 625.7 1047.2 640C989 654.3 931 693.7 872.8 715.2C814.7 736.7 756.3 740.3 698.2 744C640 747.7 582 751.3 523.8 742.3C465.7 733.3 407.3 711.7 349.2 711.7C291 711.7 233 733.3 174.8 737C116.7 740.7 58.3 726.3 29.2 719.2L0 712Z" fill="#005de8"></path><path d="M0 908L29.2 913.5C58.3 919 116.7 930 174.8 944.5C233 959 291 977 349.2 987.7C407.3 998.3 465.7 1001.7 523.8 994.3C582 987 640 969 698.2 965.5C756.3 962 814.7 973 872.8 964C931 955 989 926 1047.2 913.3C1105.3 900.7 1163.7 904.3 1221.8 899C1280 893.7 1338 879.3 1396.2 859.5C1454.3 839.7 1512.7 814.3 1570.8 823.3C1629 832.3 1687 875.7 1745.2 908.2C1803.3 940.7 1861.7 962.3 1890.8 973.2L1920 984L1920 863L1890.8 854C1861.7 845 1803.3 827 1745.2 807.2C1687 787.3 1629 765.7 1570.8 758.5C1512.7 751.3 1454.3 758.7 1396.2 778.5C1338 798.3 1280 830.7 1221.8 832.5C1163.7 834.3 1105.3 805.7 1047.2 812.8C989 820 931 863 872.8 872C814.7 881 756.3 856 698.2 854.2C640 852.3 582 873.7 523.8 880.8C465.7 888 407.3 881 349.2 873.8C291 866.7 233 859.3 174.8 857.5C116.7 855.7 58.3 859.3 29.2 861.2L0 863Z" fill="#0055d1"></path><path d="M0 1081L29.2 1081C58.3 1081 116.7 1081 174.8 1081C233 1081 291 1081 349.2 1081C407.3 1081 465.7 1081 523.8 1081C582 1081 640 1081 698.2 1081C756.3 1081 814.7 1081 872.8 1081C931 1081 989 1081 1047.2 1081C1105.3 1081 1163.7 1081 1221.8 1081C1280 1081 1338 1081 1396.2 1081C1454.3 1081 1512.7 1081 1570.8 1081C1629 1081 1687 1081 1745.2 1081C1803.3 1081 1861.7 1081 1890.8 1081L1920 1081L1920 982L1890.8 971.2C1861.7 960.3 1803.3 938.7 1745.2 906.2C1687 873.7 1629 830.3 1570.8 821.3C1512.7 812.3 1454.3 837.7 1396.2 857.5C1338 877.3 1280 891.7 1221.8 897C1163.7 902.3 1105.3 898.7 1047.2 911.3C989 924 931 953 872.8 962C814.7 971 756.3 960 698.2 963.5C640 967 582 985 523.8 992.3C465.7 999.7 407.3 996.3 349.2 985.7C291 975 233 957 174.8 942.5C116.7 928 58.3 917 29.2 911.5L0 906Z" fill="#004cbb"></path></svg>