<svg xmlns="http://www.w3.org/2000/svg" viewBox="52 52 296 148">
  <rect width="296" height="296" x="52" y="52" fill="#002"/>
  <rect width="296" height="296" x="52" y="52" fill="#3A4379" ry="2"/>
  <path fill="#6169a1" d="M73.44 58.27c-1.6.73-3.1 1.6-4.58 2.55a26.35 26.35 0 0 0-6.56 6c-1.07 1.55-2.26 3.02-3.06 4.72a30.46 30.46 0 0 0-2.03 4.6c-.73 2.26-1.54 4.5-2.02 6.85-.5 2.45-1 4.92-1.24 7.41-.36 2.84-.74 5.67-.9 8.52-.29 3.64-.42 7.29-.55 10.94-.14 6.75-.32 13.51-.3 20.27-.11 19.34-.04 38.7-.06 58.04 0 23.7-.02 47.4.01 71.1.06 6.95.01 13.9.14 20.86.14 5.6.17 11.21.5 16.81.16 3.33.5 6.64.77 9.96.4 2.92.72 5.84 1.35 8.72.42 2.36 1.1 4.67 1.88 6.93a31.3 31.3 0 0 0 2.11 5.28 29.18 29.18 0 0 0 7.97 9.94c1.44 1.16 3.05 2.08 4.64 3 1.96 1.03 4 1.89 6.13 2.5 2.44.87 4.95 1.53 7.5 1.97 3.24.68 6.55.93 9.83 1.38 3.94.38 7.9.61 11.86.77 5.16.21 10.32.24 15.49.37 15.8.08 31.6.13 47.41.1 33.8-.02 67.61-.01 101.42-.05 8.54-.1 17.1-.11 25.63-.59 3.38-.16 6.75-.5 10.12-.78 2.92-.4 5.84-.72 8.72-1.35 2.36-.42 4.67-1.1 6.93-1.88a31.29 31.29 0 0 0 5.28-2.11 29.18 29.18 0 0 0 9.78-7.78c1.09-1.6 2.32-3.1 3.15-4.86.8-1.47 1.48-3.01 2.03-4.6.73-2.26 1.54-4.5 2.02-6.85.5-2.45 1-4.92 1.24-7.41.36-2.84.74-5.67.9-8.52.29-3.64.42-7.29.55-10.94.14-6.75.32-13.51.3-20.27.11-19.34.04-38.69.06-58.04 0-23.7.02-47.4-.01-71.1-.06-6.95-.01-13.9-.14-20.86-.14-5.6-.17-11.21-.5-16.81-.16-3.33-.5-6.64-.77-9.96-.4-2.92-.72-5.84-1.35-8.72a46.17 46.17 0 0 0-1.88-6.93 31.3 31.3 0 0 0-2.11-5.28 29.18 29.18 0 0 0-7.97-9.94c-1.44-1.16-3.05-2.08-4.64-3-1.96-1.03-4-1.89-6.13-2.5a46.38 46.38 0 0 0-7.5-1.97c-3.24-.68-6.55-.93-9.83-1.38-3.94-.38-7.9-.61-11.86-.77-5.16-.21-10.32-.24-15.49-.37a6810 6810 0 0 0-47.41-.1c-33.8.02-67.61.01-101.42.05-8.54.1-17.1.11-25.63.59-3.38.16-6.75.5-10.12.78-2.92.4-5.84.72-8.72 1.35-2.36.42-4.67 1.1-6.93 1.88-1.37.41-2.7.9-4.01 1.48"/>
  <path fill="#949dd7" d="M73.44 78a57.3 57.3 0 0 0-5.5 7.24A47.23 47.23 0 0 0 65 90.17a48.08 48.08 0 0 0-3.34 7.24c-1.03 2.61-2.15 5.2-2.85 7.92a78.92 78.92 0 0 0-1.8 6.85 84.43 84.43 0 0 0-1.43 7.07c-.7 3.56-1.1 7.17-1.56 10.77-.4 4.25-.82 8.5-1.05 12.75a362.7 362.7 0 0 0-.56 15.1c-.15 5.17-.2 10.35-.21 15.52-.12 15.53-.03 31.06-.03 46.6-.03 7.59.1 15.19.22 22.78.17 6.4.41 12.78.91 19.15.3 4.3.75 8.6 1.34 12.87.4 3.36 1.07 6.67 1.66 10a94.4 94.4 0 0 0 2.43 9.5c.74 2.42 1.41 4.88 2.45 7.2a60.27 60.27 0 0 0 3.74 8.19c.91 1.7 1.86 3.4 2.96 5a56.7 56.7 0 0 0 5.79 7.56 59.35 59.35 0 0 0 8.87 7.98c1.67 1.24 3.47 2.31 5.2 3.45 2.88 1.57 5.72 3.23 8.81 4.33 2.9 1.12 5.76 2.4 8.78 3.2 2.25.7 4.54 1.28 6.85 1.78 2.33.59 4.7 1.06 7.07 1.44 3.56.7 7.17 1.1 10.77 1.56 4.25.4 8.5.82 12.75 1.05 5.13.25 10.25.4 15.38.6 7.44.1 14.9.24 22.34.2 13.88.02 27.76.07 41.65-.02 6.49-.04 12.98 0 19.47-.21 4.18-.1 8.36-.16 12.54-.45 4.11-.24 8.23-.4 12.33-.85 3.75-.3 7.47-.82 11.2-1.33 4-.72 8.04-1.34 11.98-2.4 3-.7 5.9-1.76 8.86-2.63 2.17-.7 4.25-1.68 6.38-2.5 2.7-1.13 5.25-2.62 7.81-4.04 2.1-1.38 4.25-2.7 6.21-4.28a58.34 58.34 0 0 0 13.32-14.65c1.48-2.12 2.63-4.44 3.87-6.7 1.45-2.85 2.47-5.89 3.68-8.84 1-2.52 1.64-5.17 2.42-7.77.74-3.3 1.62-6.57 2.13-9.92.53-2.77.93-5.57 1.27-8.38.5-3.66.77-7.36 1.11-11.04.45-6.25.74-12.5.85-18.77.14-5.09.23-10.18.22-15.27.1-10.93.08-21.86.06-32.79-.03-8.51.02-17.03-.06-25.54-.1-7.84-.18-15.68-.6-23.51-.17-3.76-.46-7.52-.76-11.27-.3-3.44-.7-6.87-1.18-10.3-.4-3.06-1.01-6.1-1.55-9.15a94.41 94.41 0 0 0-2.43-9.5c-.74-2.43-1.41-4.89-2.45-7.2a60.27 60.27 0 0 0-3.74-8.2c-.91-1.7-1.86-3.4-2.96-5a56.34 56.34 0 0 0-5.79-7.56 59.35 59.35 0 0 0-8.87-7.98c-1.67-1.24-3.47-2.32-5.2-3.45-2.88-1.57-5.72-3.23-8.81-4.33-2.9-1.12-5.76-2.4-8.78-3.2a78.92 78.92 0 0 0-6.85-1.78 84.44 84.44 0 0 0-7.07-1.44c-3.56-.7-7.17-1.1-10.77-1.56-4.25-.4-8.5-.82-12.75-1.05-5.13-.25-10.25-.4-15.38-.6-7.44-.1-14.9-.24-22.34-.2-13.88-.02-27.76-.07-41.65.02-6.49.04-12.98 0-19.47.21-4.18.1-8.36.16-12.54.45-4.11.24-8.23.4-12.33.85-3.75.3-7.47.82-11.2 1.33-4 .72-8.04 1.34-11.98 2.4-3 .7-5.9 1.76-8.86 2.63-2.17.7-4.25 1.68-6.38 2.5-2.7 1.13-5.25 2.62-7.81 4.04-2.1 1.38-4.25 2.7-6.21 4.28a60.34 60.34 0 0 0-7.55 7.02l-.06.06z"/>
  <circle cx="200" cy="200" r="148" fill="#bbc3ff"/>
</svg>
