<svg xmlns="http://www.w3.org/2000/svg" viewBox="0 0 24 24"><path fill="#00341d" d="M0 0h24v24H0z"/><path fill="#00c37b" d="M6.21 18.94q-1.72 0-2.9-.8T1.53 15.8q-.6-1.56-.6-3.8t.6-3.78q.6-1.56 1.78-2.36t2.9-.8 2.9.8 1.78 2.36q.6 1.54.6 3.78t-.6 3.8q-.6 1.54-1.78 2.34t-2.9.8m0-1.48q.78 0 1.36-.28.6-.28 1.02-.8l-5.34-7.7q-.26.64-.38 1.48T2.75 12q0 1.74.36 2.96.38 1.22 1.14 1.86.78.64 1.96.64M3.95 7.48l5.3 7.62q.22-.64.32-1.4.1-.78.1-1.7 0-1.32-.22-2.32-.2-1.02-.64-1.72-.42-.7-1.08-1.06-.64-.36-1.52-.36-.72 0-1.28.24t-.98.7m8.3 11.22V5.34h1.88v6.72l6.02-6.72h2.34l-5.1 5.58 5.68 7.78h-2.3l-4.64-6.4-2 2.2v4.2z"/></svg>
