<svg viewBox="0 0 24 24" xmlns="http://www.w3.org/2000/svg"><path d="M20 2H4c-1.1 0-2 .9-2 2v18l4-4h14c1.1 0 2-.9 2-2V4c0-1.1-.9-2-2-2ZM14.85 11.708q0 1.128-.828 1.812-.84.672-2.04.672-1.068 0-1.884-.624-.816-.624-1.128-1.704l1.056-.432q.108.384.3.696.192.312.444.54.264.216.576.348.312.12.66.12.756 0 1.236-.384.48-.396.48-1.044 0-.54-.396-.924-.372-.372-1.392-.72-1.032-.372-1.284-.504-1.368-.696-1.368-2.052 0-.948.756-1.62.768-.672 1.884-.672.984 0 1.704.504.72.492.96 1.236l-1.032.432q-.144-.48-.576-.792-.42-.324-1.032-.324-.648 0-1.092.36-.444.336-.444.876 0 .444.348.768.384.324 1.668.768 1.308.444 1.86 1.092.564.636.564 1.572z" fill="white"/></svg>
