<svg
  xmlns="http://www.w3.org/2000/svg"
  width="1280"
  height="640"
>
  <path fill="#131313" d="M0 0H1280V640H0z"/>
  <g id="1">
    <rect fill="#0e0e0e" rx="20" x="10" y="10" width="171" height="147"/>
    <path fill="#ffb68c" d="M0 27q-4.9 0-9-2.4T-15.6 18H-21q-1.3 0-2.1-.9T-24 15t.9-2.1T-21 12h3.3q-.2-1.5-.3-3T-18 6H-21q-1.3 0-2.1-.9T-24 3t.9-2.1T-21 0h3q0-1.5 0-3t.3-3H-21q-1.3 0-2.1-.9T-24-9t.9-2.1T-21-12h5.4q1-1.7 2.4-3.2T-10.2-17.9l-2.8-2.8Q-13.8-21.5-13.8-22.8t.9-2.1q.8-.8 2.1-.8t2.1.8l4.3 4.3q2.1-.7 4.3-.7t4.3.7l4.5-4.4q.8-.8 2.1-.8t2.1.9q.8.8.8 2.1t-.8 2.1l-2.8 2.8q1.7 1.1 3.1 2.6T15.6-12H21q1.3 0 2.1.9T24-9t-.9 2.1T21-6h-3.3q.2 1.5.3 3T18 0h3q1.3 0 2.1.9T24 3t-.9 2.1T21 6h-3q0 1.5-0 3t-.3 3H21q1.3 0 2.1.9T24 15t-.9 2.1T21 18h-5.4q-2.4 4.2-6.6 6.6T0 27m-3-15h6q1.3 0 2.1-.9T6 9t-.9-2.1T3 6h-6q-1.3 0-2.1.9T-6 9t.9 2.1T-3 12m0-12h6q1.3 0 2.1-.9T6-3t-.9-2.1T3-6h-6q-1.3 0-2.1.9T-6-3t.9 2.1T-3 0" transform="translate(10 10) translate(85.5 73.5)"/>
  </g>
  <use href="#1" x="181" id="2"/>
  <use href="#2" x="181" id="3"/>
  <use href="#3" x="181" id="4"/>
  <use href="#4" x="181" id="5"/>
  <use href="#5" x="181" id="6"/>
  <use href="#6" x="181" id="7"/>
  <use href="#1" y="157"/>
  <use href="#1" y="315"/>
  <use href="#1" y="472"/>
  <use href="#2" y="157"/>
  <use href="#2" y="315"/>
  <use href="#2" y="472"/>
  <use href="#3" y="157"/>
  <use href="#3" y="315"/>
  <use href="#3" y="472"/>
  <use href="#4" y="315"/>
  <use href="#4" y="157"/>
  <use href="#4" y="472"/>
  <use href="#5" y="315"/>
  <use href="#5" y="157"/>
  <use href="#5" y="472"/>
  <use href="#6" y="315"/>
  <use href="#6" y="157"/>
  <use href="#6" y="472"/>
  <use href="#7" y="315"/>
  <use href="#7" y="157"/>
  <use href="#7" y="472"/>
</svg>
