<svg xmlns="http://www.w3.org/2000/svg" viewBox="0 0 319.4 195.5">
  <!-- <path fill="#121212" d="M0 0h319.4v195.5H0z"/> -->
  <g fill="none" stroke-linecap="round" stroke-width="2">
    <path stroke="#39994b" d="M16.2 11.2c6.2-1.7 11.9-1.7 25.4 0m-25.4 0c9.5 0 21.2-.7 25.4 0m0 0q7 2.4 6.2 6.2m-6.2-6.2q3.5-2.5 6.2 6.2m0 0c-.4 2.6.5 6.1 0 12.3m0-12.3c.7 2.8 0 5 0 12.3m0 0c2 2.8-1 7-6.2 6.2m6.2-6.2c.5 6.3-1.4 5-6.2 6.2m0 0a69 69 0 0 0-25.4 0m25.4 0c-7.9.7-15.2-.3-25.4 0m0 0c-3.4 2-7-1-6.2-6.2m6.2 6.2c-3 .3-6.4-3.6-6.2-6.2m0 0c.3-3.1-.4-6.9 0-12.3m0 12.3c-.2-3.2-.2-6.2 0-12.3m0 0c.8-3.8 1.8-6.5 6.2-6.2M10 17.4c-.5-2.4 1.3-7.7 6.2-6.2"/>
    <path stroke="#39994b" d="M68 11.2c4 2 10.4 2 25.5 0m-25.5 0c10-.6 18.5.4 25.5 0m0 0c4.5 1.9 6.7 1 6.2 6.2m-6.2-6.2c3 2 5.3 1.5 6.2 6.2m0 0c-.2 3.7.5 5.2 0 12.3m0-12.3c0 5-.4 9.2 0 12.3m0 0c1 4.4-2.3 4.8-6.2 6.2m6.2-6.2c-.3 2.3-1.8 6.6-6.2 6.2m0 0a195 195 0 0 0-25.5 0m25.5 0c-7.3.2-15.5-.1-25.5 0m0 0c-4.5 1.5-6.8-3.4-6.2-6.2M68 36c-5.9 1.7-5.2-.4-6.2-6.2m0 0c.2-4.8-1-8 0-12.3m0 12.3c-.2-3.4.4-5.8 0-12.3m0 0c1.4-2.7 3-6.6 6.2-6.2m-6.2 6.2c-1.3-5.6 2.3-6 6.2-6.2"/>
    <path stroke="#39994b" d="M119.9 11.2c7.2-.4 13.4-.5 25.4 0m-25.4 0c8.8 1 19.6.9 25.4 0m0 0c4-1.7 4.8 2.2 6.2 6.2m-6.2-6.2c2-2 4.7 1.1 6.2 6.2m0 0c-.4 4 1.2 7.3 0 12.3m0-12.3c-.3 4.1.1 9.2 0 12.3m0 0c.7 4.7-2.3 5.3-6.2 6.2m6.2-6.2c0 5-1.6 6.5-6.2 6.2m0 0c-9.2.2-17.8-1.2-25.4 0m25.4 0a212 212 0 0 0-25.4 0m0 0c-3.4.3-6-1.4-6.2-6.2m6.2 6.2c-2.3-1.8-6.7-2-6.2-6.2m0 0c.3-3.3-.3-7 0-12.3m0 12.3c-.1-4.8.7-9.5 0-12.3m0 0c.5-6 2.3-6.7 6.2-6.2m-6.2 6.2c.3-6.1 1.5-6.1 6.2-6.2"/>
    <path stroke="#56a2e8" d="M171.7 11.2c6.1-.6 14.6-.3 25.5 0m-25.5 0c6.2.6 13.6-.5 25.5 0m0 0c6-.5 6.7.3 6.1 6.2m-6.1-6.2c4.3-.6 6.5 0 6.1 6.2m0 0c.3 4.2.1 5.7 0 12.3m0-12.3c-.1 4-.3 8.7 0 12.3m0 0c1.4 5.2-1 6.8-6.1 6.2m6.1-6.2c.6 3-4 5.5-6.1 6.2m0 0c-10.2.9-19-.3-25.5 0m25.5 0c-8.8.5-18.5.7-25.5 0m0 0c-3-.6-4.8-.7-6.2-6.2m6.2 6.2c-3.4 2.2-5-2-6.2-6.2m0 0c.3-4 .2-5.5 0-12.3m0 12.3c.8-3.4.3-5.6 0-12.3m0 0q-.2-5 6.2-6.2m-6.2 6.2c.1-3.1.2-7 6.2-6.2"/>
    <path stroke="#56a2e8" d="M223.5 11.2c6.7-1.9 12.6.4 25.5 0m-25.5 0c7.4-.5 13 .9 25.5 0m0 0q6.1 1.2 6.2 6.2m-6.2-6.2c4.2 1 4.3 1.2 6.2 6.2m0 0c.1 3.9-.8 7.7 0 12.3m0-12.3c0 3.3.2 6 0 12.3m0 0c1.2 5.2-1.8 5.8-6.2 6.2m6.2-6.2c-.3 4.8-4 6.6-6.2 6.2m0 0c-6.5-1.7-15.3 1.7-25.5 0m25.5 0c-9.3-.8-17.3.4-25.5 0m0 0c-5.3-.5-5.7-3.7-6.1-6.2m6.1 6.2c-4.5.5-5.8-1.5-6.1-6.2m0 0c.2-3.2-.7-7.8 0-12.3m0 12.3V17.4m0 0c1.4-2.2.2-7.2 6.1-6.2m-6.1 6.2c0-2.4 2.6-4 6.1-6.2"/>
    <path stroke="#39994b" d="M16.9 48.7c8.9.9 14.6.5 25.5 0m-25.5 0c6.4.8 13.1-.3 25.5 0m0 0c3.4-.3 6 1.5 6.1 6.2m-6.1-6.2c2.4 1.6 6.8-.2 6.1 6.2m0 0c.7 4.8-.3 7.8 0 12.3m0-12.3c0 2.8-.2 6 0 12.3m0 0c1 2.6-3.3 4.4-6.1 6.2m6.1-6.2c-.1 6-.4 7-6.1 6.2m0 0c-6 1.6-12.2 1.7-25.5 0m25.5 0c-8 .9-16.5.5-25.5 0m0 0c-6 .6-5.2-3.2-6.2-6.2m6.2 6.2c-6 .3-6.6-2-6.2-6.2m0 0c.6-5.6.3-10 0-12.3m0 12.3c.2-3.3 0-6 0-12.3m0 0c-1.1-2.7.5-7.8 6.2-6.2m-6.2 6.2c-.6-6.2 1.3-7.6 6.2-6.2"/>
    <path stroke="#39994b" d="M75.6 48.7c2.5.1 5 .5 11.8 0m-11.8 0c3.4-.3 6.7-.2 11.8 0m0 0c3.8-.6 4.4 3.4 5.8 5.9m-5.8-5.9c4.5-2.3 5.8.4 5.8 5.9m0 0c-.2 4.4-.4 6.9 0 13m0-13c-.1 3.8.4 8.1 0 13m0 0c-1.3 2-2 7.3-5.8 5.8m5.8-5.9c1.6 4.7-3.8 5-5.8 5.9m0 0c-4.6 1-7.6-1-11.8 0m11.8 0c-4 .3-8.6.3-11.8 0m0 0c-3-1.1-7.4-1.7-5.9-5.9m6 5.9c-4.5 0-4.6-2.8-6-5.9m0 0c.3-5.2-1-7.5 0-13m0 13c0-3.7-.4-6 0-13m0 0c-1.5-5.5 1.4-7.6 6-5.8m-6 5.9c-.7-5.4 3.1-7.7 6-5.9"/>
    <path stroke="#39994b" d="M120.6 48.7c7.7.8 17-.5 25.5 0m-25.5 0c9.2 0 19-.2 25.5 0m0 0c2.6 1.4 6.7 0 6.1 6.2m-6.1-6.2c4-1.6 6.2 3.4 6.1 6.2m0 0c-.5 3.9.4 10 0 12.3m0-12.3c.3 2.4-.4 5.3 0 12.3m0 0c-.1 5.7-.6 6.9-6.1 6.2m6.1-6.2c-1.8 3.2-1.2 5.8-6.1 6.2m0 0c-9-1.7-18.4.8-25.5 0m25.5 0c-10.5.4-18.7-.5-25.5 0m0 0c-5.7.3-6.6-2-6.2-6.2m6.2 6.2c-2.8-.8-6-1.1-6.2-6.2m0 0c-1-2.1-.6-4.7 0-12.3m0 12.3a66 66 0 0 1 0-12.3m0 0c-.5-6 1.4-7.5 6.2-6.2m-6.2 6.2c1.1-6 3-6.5 6.2-6.2"/>
    <path stroke="#56a2e8" d="M172.4 48.7c8-.6 17.6-.5 25.5 0m-25.5 0c6.8-.2 12.8.7 25.5 0m0 0c4.7-2 6.2.7 6.2 6.2m-6.2-6.2c4.2 1.4 8.4 1.6 6.2 6.2m0 0c.3 4.3-.8 8 0 12.3m0-12.3c-.4 2.2 0 6 0 12.3m0 0c1.4 4.8-3.7 5.4-6.2 6.2m6.2-6.2c.8 3.7-.3 5-6.2 6.2m0 0c-8.8.4-17.9.2-25.5 0m25.5 0c-8-.5-17.8.2-25.5 0m0 0c-4.5 0-5-2.8-6.1-6.2m6.1 6.2c-4 1-8.3-1.5-6.1-6.2m0 0c-.5-2.1-1.1-5.1 0-12.3m0 12.3c-.4-3.2-.1-6 0-12.3m0 0c-.7-5.4 3-7.7 6.1-6.2m-6.1 6.2c.9-4.4 4-5.6 6.1-6.2"/>
    <path stroke="#d3d3d3" d="M224.3 48.7c10.2-.3 16.7-.6 25.4 0m-25.4 0c6.5.8 14.7-1 25.4 0m0 0c4.1-1.3 6.3 3.3 6.2 6.2m-6.2-6.2c6.3-.5 7 1.2 6.2 6.2m0 0a30 30 0 0 0 0 12.3m0-12.3c-.1 3.2.4 5.7 0 12.3m0 0c-1.6 3.3-1.3 5.8-6.2 6.2m6.2-6.2c1.8 3-.2 6.9-6.2 6.2m0 0c-3.6.5-9.6-1.7-25.4 0m25.4 0h-25.4m0 0c-3-.7-6-1.2-6.2-6.2m6.2 6.2c-6.3.5-8.4-3.9-6.2-6.2m0 0c-1.1-4.2-.9-8.8 0-12.3m0 12.3c0-5.1-.1-9.5 0-12.3m0 0c1-5.7 2.9-6.5 6.2-6.2m-6.2 6.2c1.9-3.5 3.2-4.1 6.2-6.2"/>
    <path stroke="#39994b" d="M19.8 86.7a70 70 0 0 1 25.5 0m-25.5 0c5.4.7 13.2-.4 25.5 0m0 0c5-2 5.4 1 6.1 6.2m-6.1-6.2c2.5-2 7.7 3 6.1 6.2m0 0c-1 3.3-.9 5.6 0 12.3m0-12.3q-.7 6 0 12.3m0 0c1.9 5.4-2.3 8.1-6.1 6.2m6.1-6.2c.5 4.1.2 6.5-6.1 6.2m0 0c-8-.1-15 1-25.5 0m25.5 0c-5.3.6-12.2-.4-25.5 0m0 0c-5.9-.9-6.4-1.9-6.2-6.2m6.2 6.2c-4.4-.5-5.9-.5-6.2-6.2m0 0c-1.1-2.5.9-7 0-12.3m0 12.3c.5-3.1.5-6 0-12.3m0 0c-.5-4.3 2.7-7 6.2-6.2m-6.2 6.2c-1-6.3 4.3-6.7 6.2-6.2"/>
    <path stroke="#39994b" d="M78.5 86.7c4.9-.9 8.2 0 11.8 0m-11.8 0c5-.2 9.3-.7 11.8 0m0 0c3.2-1 4.4.1 5.8 5.9m-5.8-5.9c5.4 1 4.3 3.4 5.8 5.9m0 0c-1.1 3.1 0 6.3 0 13m0-13c-.6 4.8.5 9.5 0 13m0 0c-.2 5.8-1.5 5.8-5.8 5.8m5.8-5.9c2.2 4.2-1.4 5-5.8 5.9m0 0c-2.1.7-6.7.5-11.8 0m11.8 0a92 92 0 0 0-11.8 0m0 0c-4.1.2-6.1-2.4-5.9-5.9m6 5.9c-3.7 1.5-7-2.4-6-5.9m0 0c1-3.6-.8-4.6 0-13m0 13c.5-3.6-.3-6.3 0-13m0 0c.6-4.7 1.2-7.7 6-5.8m-6 5.9c2.2-4.4 2.8-7.3 6-5.9"/>
    <path stroke="#39994b" d="M123.5 86.7c5.4.2 14.6-1.6 25.5 0m-25.5 0c10.5-1 19.6-.4 25.5 0m0 0c2.7-1.8 7.5 3 6.1 6.2m-6.1-6.2c2.6 1.4 5 0 6.1 6.2m0 0c0 3.8.6 7.2 0 12.3m0-12.3c.5 4.5-.1 8.8 0 12.3m0 0c.4 4.1-.1 6.5-6.1 6.2m6.1-6.2c.6 3.2-3 6.6-6.1 6.2m0 0c-8.9 1-13.6 2-25.5 0m25.5 0c-9.5-.6-17.3 0-25.5 0m0 0c-4.4-.4-6-.7-6.2-6.2m6.2 6.2c-5.1-.4-8-4.2-6.2-6.2m0 0q-1.3-5 0-12.3m0 12.3c-.3-3 0-6.3 0-12.3m0 0c-.8-6 4-6.6 6.2-6.2m-6.2 6.2c.8-5.6 3.4-7.3 6.2-6.2"/>
    <path stroke="#56a2e8" d="M175.3 86.7c7.3-1.8 13.1 1.4 25.5 0m-25.5 0c6.7-.3 13.4-.7 25.5 0m0 0c5.4.8 4.9 3.3 6.2 6.2m-6.2-6.2c3-2.1 7 .2 6.2 6.2m0 0c.7 2.6.4 6.1 0 12.3m0-12.3c0 4.9.2 8.5 0 12.3m0 0c1.9 4.4-1.6 5.4-6.2 6.2m6.2-6.2c-1 4.5-2 8-6.2 6.2m0 0c-7.4 1.9-17.6.4-25.5 0m25.5 0c-6.3 0-12.5-.3-25.5 0m0 0c-3.8 1.3-7-2.4-6.1-6.2m6.1 6.2c-5.8-2.2-4.9-.5-6.1-6.2m0 0c-.7-1.8-.6-5 0-12.3m0 12.3c.2-3-.3-6.1 0-12.3m0 0c1.9-4.6 2.7-7.4 6.1-6.2m-6.1 6.2c1.3-5.3 1.1-7.2 6.1-6.2"/>
    <path stroke="#56a2e8" d="M227.2 86.7c9.5 1.7 15 1.2 25.5 0m-25.5 0c4.4-.8 10.9.6 25.5 0m0 0c2.8 1.3 5.2.2 6.1 6.2m-6.1-6.2c4.8-1.8 5.9 2.4 6.1 6.2m0 0c.5 2.4.7 8 0 12.3m0-12.3c.1 4.4.6 9 0 12.3m0 0c.5 3.4-3 6.5-6.1 6.2m6.1-6.2c0 6-.7 4.9-6.1 6.2m0 0c-8 .5-18.5-1.5-25.5 0m25.5 0c-6.7-.2-13 .7-25.5 0m0 0c-5-.4-7.7-4-6.2-6.2m6.2 6.2c-2.9 1.5-7.4-3.8-6.2-6.2m0 0a36 36 0 0 1 0-12.3m0 12.3c-.3-4.2.6-7.3 0-12.3m0 0c.7-5.4 3.2-7.2 6.2-6.2m-6.2 6.2c-.9-5.1 3.8-5.1 6.2-6.2"/>
    <path stroke="#39994b" d="M18 123.7a71 71 0 0 0 25.5 0m-25.4 0a354 354 0 0 1 25.4 0m0 0c5.7-.7 7.9 2.3 6.2 6.2m-6.2-6.2c4.6 1.8 7 2 6.2 6.2m0 0c-.1 1.4 1 5.3 0 12.4m0-12.4c-.3 4.4.4 7.8 0 12.4m0 0c1.2 5.4-4 4.2-6.2 6.1m6.2-6.1c1 5-2 8.3-6.2 6.1m0 0c-6.3 2.2-15.1.5-25.4 0m25.4 0c-7.3-1-12 0-25.4 0m0 0c-4 .2-7.9-1.3-6.2-6.1m6.2 6.1c-4.6-1.3-8 .2-6.2-6.1m0 0c-.4-5.7.5-9.2 0-12.4m0 12.4c-.5-4.6-.5-8.4 0-12.4m0 0c1-5.9 3-6 6.2-6.2m-6.2 6.2c.7-4.9.9-8.3 6.2-6.2"/>
    <path stroke="#d3d3d3" d="M69.9 123.7c9 1.8 17.9-.2 25.5 0m-25.5 0c9.5-.2 18.4-.3 25.5 0m0 0c5.8.3 6.5 3.6 6.1 6.2m-6.1-6.2c4.8 0 4 3.5 6.1 6.2m0 0c1 5 .5 9.3 0 12.4m0-12.4c.4 2 .4 5.4 0 12.4m0 0c-1.9 2.2-1.1 6.9-6.1 6.1m6.1-6.1c.1 6.2-1.5 7.6-6.1 6.1m0 0c-8.3.6-20.2-.5-25.5 0m25.5 0c-6.8-.3-15-.2-25.5 0m0 0c-5.8.8-6.6-3.2-6.2-6.1m6.2 6.1c-5.8 2.3-4.5-2.4-6.2-6.1m0 0q.9-4.4 0-12.4m0 12.4c-.4-3.7.5-8.3 0-12.4m0 0c1-4 2.7-6.8 6.2-6.2m-6.2 6.2c-1.1-6.2 2.7-6.9 6.2-6.2"/>
    <path stroke="#39994b" d="M121.7 123.7c9.2-.3 19.7-2.1 25.5 0m-25.5 0c8-.2 15.2.2 25.5 0m0 0c4.5 1.6 6.8 2 6.2 6.2m-6.2-6.2c2 1.5 8.2 1.7 6.2 6.2m0 0c.5 2.3-1.1 4.6 0 12.4m0-12.4c.4 4.6-.5 7.7 0 12.4m0 0c.9 4.8-2 8-6.2 6.1m6.2-6.1c.5 5.5-.3 8.3-6.2 6.1m0 0c-11.2-.8-20.5-1.9-25.5 0m25.5 0c-5 0-11 .4-25.5 0m0 0c-4.5-1.2-7.6 0-6.1-6.1m6.1 6.1c-2.4-.3-7.4-2.8-6.1-6.1m0 0c.5-3.7 0-6.5 0-12.4m0 12.4c.4-3.7.4-6.2 0-12.4m0 0c.6-4.8 1-8 6.1-6.2m-6.1 6.2c.5-4.8 1.2-4 6.1-6.2"/>
    <path stroke="#d3d3d3" d="M173.6 123.7c11-1.9 19.9 1.4 25.5 0m-25.5 0c7.9.2 14.2.9 25.5 0m0 0c4.7 0 4.3 3.3 6.1 6.2m-6.1-6.2c6-.3 4 4 6.1 6.2m0 0c-1.1 3.3.5 8.6 0 12.4m0-12.4c-.5 2 .4 5.4 0 12.4m0 0c.1 6-1.5 7.4-6.1 6.1m6.1-6.1c1.8 6.3.3 7.7-6.1 6.1m0 0c-8.2-2-18.1 1.5-25.5 0m25.5 0c-8.4.4-15.3-.5-25.5 0m0 0c-5.6 2-4.7-2.3-6.2-6.1m6.2 6.1c-5.4-.8-8.2-1.1-6.2-6.1m0 0c.1-5-.7-8.7 0-12.4m0 12.4q.4-6 0-12.4m0 0c-1-6 2.6-6.8 6.2-6.2m-6.2 6.2c-.8-2 1.9-6.5 6.2-6.2"/>
    <path stroke="#d3d3d3" d="M225.4 123.7a63 63 0 0 0 25.5 0m-25.5 0c7 .8 13.9 0 25.5 0m0 0c2.2 1.3 8 1.8 6.2 6.2m-6.2-6.2c2 1.9 6.5 3 6.2 6.2m0 0c.3 4.3-1.3 7.7 0 12.4m0-12.4v12.4m0 0c.5 5.3-.5 8-6.2 6.1m6.2-6.1c2.3 5.6-1.7 5-6.2 6.1m0 0c-8.6 1.3-13.3-.1-25.5 0m25.5 0c-8-.5-16.4 1-25.5 0m0 0c-2.6-.3-7.2-2.7-6.1-6.1m6.1 6.1c-6 1-6.1-1-6.1-6.1m0 0c-.7-4 .2-4.9 0-12.4m0 12.4c.1-2.8-.4-5.8 0-12.4m0 0c.5-4.7 1.3-4.3 6.1-6.2m-6.1 6.2c-.2-4.4 3.3-7.9 6.1-6.2"/>
    <path stroke="#39994b" d="M17.5 160.8c11.2.8 18.4.7 25.4 0m-25.4 0c6.2.4 10.9-.9 25.4 0m0 0c3.9-1.1 4.4 3.7 6.2 6.1m-6.2-6.1c3 1.3 8 4.3 6.2 6.1m0 0c-.1 3.9-.6 9.8 0 12.4m0-12.4c.1 3-.4 5.7 0 12.4m0 0c-1.7 3.6-3.7 6.5-6.2 6.2m6.2-6.2c-.7 2.7-3 6.7-6.2 6.2m0 0c-10.2.7-17.4-1.6-25.4 0m25.4 0c-7.6.7-13.4-.7-25.4 0m0 0c-4.3 1.9-7.8-3.4-6.2-6.2m6.2 6.2c-6.1.2-6.6-1-6.2-6.2m0 0c0-3.2 1-4.4 0-12.4m0 12.4c0-4 .5-7.4 0-12.4m0 0c1.1-4.9 3.9-5.6 6.2-6.1m-6.2 6.1c-1.3-5.5 1.5-5.8 6.2-6.1"/>
    <path stroke="#d3d3d3" d="M69.3 160.8c4.2.5 9.6-1.3 25.5 0m-25.5 0c9.4-.8 19-.7 25.5 0m0 0c2.3 1.6 5.1 3.2 6.2 6.1m-6.2-6.1q8.9 3.2 6.2 6.1m0 0c-.8 4-.8 7.3 0 12.4m0-12.4c-.3 2.6-.5 5.4 0 12.4m0 0c-1.7 4.5-2.7 5-6.2 6.2m6.2-6.2c-1 4.6-.7 4.8-6.2 6.2m0 0c-5.4-1.4-13.2-.7-25.5 0m25.5 0c-6-.4-12.9 1.2-25.5 0m0 0c-5.7-1.4-7.9-1.9-6.1-6.2m6.1 6.2c-4.4 1-8.3-.6-6.1-6.2m0 0c1-3.5-.4-8 0-12.4m0 12.4c.5-3.7.3-6.4 0-12.4m0 0c1.8-3.6.8-7.4 6.1-6.1m-6.1 6.1c-.6-3.8 2-5.6 6.1-6.1"/>
    <path stroke="#39994b" d="M121.2 160.8c6.8-1.3 18.4 1.2 25.4 0m-25.4 0c9-.4 17.3 1 25.4 0m0 0c3 1.2 7.7 4 6.2 6.1m-6.2-6.1c6.1 2 6.3 1.6 6.2 6.1m0 0c-.8 2.5-1 5.9 0 12.4m0-12.4c-.6 3.5-.6 7.3 0 12.4m0 0c-.6 3-2.8 6.6-6.2 6.2m6.2-6.2c1.4 2.7-3.2 5-6.2 6.2m0 0c-9.3-1-18.5-1.6-25.4 0m25.4 0c-10 .8-20.5-.9-25.4 0m0 0c-5.9.2-6.5-1.2-6.2-6.2m6.2 6.2c-6.3 1.4-5.4-1.9-6.2-6.2m0 0a41 41 0 0 1 0-12.4m0 12.4c.2-2.7.4-4.8 0-12.4m0 0c-1.2-5.3 1.6-5.9 6.2-6.1m-6.2 6.1c-.1-3.5 3.6-6.9 6.2-6.1"/>
    <path stroke="#56a2e8" d="M173 160.8c9.9 1.4 18-.3 25.5 0m-25.5 0c5.1 1 11.5.7 25.5 0m0 0q8.5 2.8 6.2 6.1m-6.2-6.1c4.2-.5 4.4.6 6.2 6.1m0 0c-1 4.3-.2 7.2 0 12.4m0-12.4c-.7 3.5-.3 6.3 0 12.4m0 0c-.8 4.5-.9 5-6.2 6.2m6.2-6.2c-1.2 3-1 7.3-6.2 6.2m0 0c-6.8-1.5-9.8.8-25.5 0m25.5 0c-7-.5-13.2.3-25.5 0m0 0c-4.4.8-8-.8-6.2-6.2m6.2 6.2c-3.3.2-7.4 0-6.2-6.2m0 0c-.6-4.3-1.1-7.7 0-12.4m0 12.4c.5-2.3-.4-5.3 0-12.4m0 0c-.4-3.8 2-5.6 6.2-6.1m-6.2 6.1c1.6-4.8.7-5.3 6.2-6.1"/>
    <path stroke="#56a2e8" d="M224.9 160.8c7.2-.6 10.9-.5 25.4 0m-25.4 0c5.7.4 13.2.7 25.4 0m0 0c5.8 1.8 6.3 1.6 6.2 6.1m-6.2-6.1c2.4-1.4 6.6.6 6.2 6.1m0 0c-.2 2.8-.5 5.8 0 12.4m0-12.4q-.4 4.5 0 12.4m0 0c1.2 3-3 5.1-6.2 6.2m6.2-6.2c1 5.2-3.8 5.6-6.2 6.2m0 0c-4.9.8-14.5-.4-25.4 0m25.4 0c-11 0-20.3.2-25.4 0m0 0c-6 1.2-5.5-2-6.2-6.2m6.2 6.2c-5.4 2-5-2.7-6.2-6.2m0 0a22 22 0 0 1 0-12.4m0 12.4c-.5-3.6-.3-6.4 0-12.4m0 0c-.1-3.6 3.4-6.8 6.2-6.1m-6.2 6.1c-1.5-3.3 3.7-6 6.2-6.1"/>
    <path stroke="#56a2e8" d="M274 10c6.7 1 13-.7 25.6 0M274 10h25.5m0 0c4.4 1.3 4.7.3 6.1 6.2m-6.1-6.2c2.3 1.4 5-.2 6.1 6.2m0 0a28 28 0 0 0 0 12.3m0-12.3c0 2.8-.3 7 0 12.3m0 0c1.7 5.8-1.1 8-6.1 6.2m6.1-6.2c.9 3.6-2.4 6.5-6.1 6.2m0 0c-7-1.2-9-.5-25.5 0m25.5 0c-9.7-.7-19 0-25.5 0m0 0c-3.3-1.5-8-2.3-6.2-6.2m6.2 6.2c-4.4-2.2-7.9-.9-6.2-6.2m0 0c-.2-4.6.8-7.2 0-12.3m0 12.3V16.2m0 0A5 5 0 0 1 274 10m-6.2 6.2c.6-5.3.3-7.2 6.2-6.2"/>
    <path stroke="#d3d3d3" d="M274.8 47.5c7.1-1 9.3.5 25.5 0m-25.5 0c9.7.3 19.4.6 25.5 0m0 0c2.7-1.7 4.6 3.3 6.2 6.2m-6.2-6.2c3-2.2 5.4 1.3 6.2 6.2m0 0c-1.2 4.4-.5 8.5 0 12.3m0-12.3c-.3 4.6.5 8.9 0 12.3m0 0c.8 6-1.4 5.7-6.2 6.2m6.2-6.2c-.4 4.5-4.2 8.2-6.2 6.2m0 0c-3.7-.4-9.6.1-25.5 0m25.5 0c-9-.2-16.9-1-25.5 0m0 0c-5.9-.2-6.4-4-6.2-6.2m6.2 6.2c-5.8 1.2-5.9 0-6.2-6.2m0 0c1-2.3.2-5.9 0-12.3m0 12.3c0-4.2-.3-8.7 0-12.3m0 0q.7-7.9 6.2-6.2m-6.2 6.2c-1.7-5.1 2.9-5.5 6.2-6.2"/>
    <path stroke="#56a2e8" d="M277.7 85.5c7.4.7 19-.4 25.5 0m-25.5 0c8 .6 15.1-1 25.5 0m0 0c2.6 1.3 5.3.1 6.2 6.2m-6.2-6.2c3.3-.8 7.3.7 6.2 6.2m0 0c-.5 3.8.3 8.2 0 12.3m0-12.3c.4 3 .2 5.8 0 12.3m0 0c.7 3.7-2.4 6.5-6.2 6.2m6.2-6.2c-2.1 6.1-4 4.3-6.2 6.2m0 0c-5 .2-11.9-.6-25.5 0m25.5 0c-5.3-.8-12.2-.1-25.5 0m0 0c-4.4-1.9-7.6-1-6.2-6.2m6.2 6.2c-3.8 2-7.8-2.3-6.2-6.2m0 0c0-3.1.7-5.9 0-12.3m0 12.3c-.3-4.7.2-10 0-12.3m0 0c.5-5.2.6-7 6.2-6.2m-6.2 6.2c.8-3.4 2-5.6 6.2-6.2"/>
    <path stroke="#56a2e8" d="M276 122.6c8-.6 13 0 25.4 0m-25.4 0c7.6-1 15.8.4 25.4 0m0 0c3.3-2 5.6 1.3 6.2 6.1m-6.2-6.1c5.3-1.4 6.8 0 6.2 6.1m0 0c.5 4-1.1 7 0 12.4m0-12.4c.4 5 .3 8.8 0 12.4m0 0c-.3 4.4-3.8 7.9-6.2 6.1m6.2-6.1c-2 2.2-3.2 8.1-6.2 6.1m0 0c-6.5-.5-16.2-.5-25.4 0m25.4 0c-8.4-.2-15.1-1-25.4 0m0 0c-5.6 1-6-.3-6.2-6.1m6.2 6.1c-5.8-.2-7.7-.3-6.2-6.1m0 0c.7-4.3 1.1-8.6 0-12.4m0 12.4q.3-6.4 0-12.4m0 0c-1.5-5 2.7-5.5 6.2-6.1m-6.2 6.1c-.2-3.5.8-6 6.2-6.1"/>
    <path stroke="#56a2e8" d="M275.4 159.6q12.9.4 25.5 0m-25.5 0c8.5.8 18-.8 25.5 0m0 0c3.4-.7 7.2.9 6.1 6.2m-6.1-6.2c4.7-2 6.3 1.4 6.1 6.2m0 0c-1 3 .9 8 0 12.3m0-12.3c.3 4.5 0 9.4 0 12.3m0 0c-1.8 5.9-3.7 4.5-6.1 6.2m6.1-6.2c-1.1 6.1-2.3 7.7-6.1 6.2m0 0c-9.5-.7-16 .7-25.5 0m25.5 0c-5.9-1-12.2.5-25.5 0m0 0c-3.9 1.7-7.6-2.2-6.2-6.2m6.2 6.2c-5.6 1.7-5.2-1.9-6.2-6.2m0 0c1.1-3.6.2-7.7 0-12.3m0 12.3c.2-4.2-.5-8.1 0-12.3m0 0c.7-3.5 2-5.7 6.2-6.2m-6.2 6.2c-1.2-4 0-4.4 6.2-6.2"/>
  </g>
</svg>
