<svg xmlns="http://www.w3.org/2000/svg" width="1280" height="640"><path fill="#0b0f0c" d="M0 0h1280v640H0Z"/><path fill="#dfe8dd" d="M195 312q0-10-3-16a19 19 0 0 0-9-9q-5-3-13-3-10 0-16 4-7 4-11 13-3 8-4 23v20q0 16 5 25 4 9 12 13 8 3 18 3l16-1 14-4v9l-14 4-17 1q-14 0-23-4t-15-16-5-30v-20q0-17 5-28t13-16a44 44 0 0 1 22-5q11 0 19 4 7 4 12 14 4 9 4 24v41l2 2 4-1v9l-7 2q-3 0-5-2l-3-4-1-8zm-38 17q0-10 3-16l7-9 10-3q5 0 9 2l8 6h2v10l-5-5-5-3-6-1q-6 0-9 5-4 5-4 17v6q0 12 3 17a11 11 0 0 0 10 6 18 18 0 0 0 16-10v10h-2l-8 6-9 3-10-3a20 20 0 0 1-8-10l-2-17Zm68 29h47v10h-47Zm18 10v-92l3 4h-21v-10l28-1 2 1v98Zm78-67q8 0 14 2 5 2 9 6l2 13v32l1 4 3 1h4v9l-8 1-7-1-3-4-1-6-1-1v-35q1-5-2-8l-4-3-8-2q-5 0-8 2l-5 3-2 7v2h-11v-3q0-9 6-14 7-5 21-5m18 38-5-1h-6l-13 1-8 4-3 8a9 9 0 0 0 6 8l7 1 9-1 10-6v7h-2l-7 5a29 29 0 0 1-16 5l-10-3-7-6-3-9q0-9 6-14a35 35 0 0 1 16-6l23-1zm29-37h13l22 52h1l19-52h13l-26 65-7 15-10 9a29 29 0 0 1-19 3h-3l-1-1v-10h4l4 1q5 0 9-2l6-4 3-6 3-9 2 3-1 9zm81 33q0-11 4-19a28 28 0 0 1 12-11q7-4 18-4 9 0 15 3a23 23 0 0 1 11 10q3 6 3 16v6h-54v-8h45l-3 2v-2q0-9-5-13t-13-4q-10 0-15 6t-5 18 5 18 15 7q7 0 11-3l7-8 12 2-7 10-10 7-13 2q-9 0-17-4a28 28 0 0 1-12-12q-4-8-4-19m110-21h1v54h-12v-59l2 3h-20v-10h28zm33-1h-15l-10 3-10 6v-10h3l11-8q6-3 14-3h7zm-62 45h53v10h-53zm0 0"/><path fill="#a5ada4" d="m703 36-1 12h-10v-98h12v86zm48-21q0 10-3 19-3 8-9 11-5 5-14 5l-12-3-8-8h-3v-9q4 5 9 7l10 2 9-2 7-8 2-14-2-13q-2-6-6-8-4-3-10-3l-10 2-9 8V-9h3l9-7q5-3 12-3a23 23 0 0 1 22 16q3 8 3 18m46-34q8 0 14 2l9 6q3 5 3 13v36l3 1h4v9l-8 1-7-1-3-4-1-6V2l-2-8-5-3-8-1-8 1-5 3-2 7v2h-11V0q0-9 6-14 8-6 21-5m18 38-5-1h-6l-13 1-8 4q-3 4-3 7l2 6 4 3 7 1 10-1 9-6v7h-2l-7 5-7 3-9 2q-6 0-10-3l-7-6q-3-3-3-9 1-9 6-14 6-5 16-5l23-2zm63-38q9 0 15 2t10 6 3 11l-11 1q0-5-5-8-4-3-13-3l-12 2q-4 3-4 7l2 4 4 3 14 4 15 4q6 2 8 6 3 3 3 9t-3 11l-10 7q-7 3-16 3l-16-2q-6-3-10-7t-6-12l11-1 5 8 7 3a40 40 0 0 0 19 0l5-4 2-5-2-4q-2-3-6-4l-13-3-14-4q-5-1-8-6-2-3-2-9 0-9 7-14 7-6 21-5m47 34q1-10 4-19a28 28 0 0 1 12-11q8-4 18-4 9 0 16 3a23 23 0 0 1 10 10q3 6 3 16v6h-53V8h45l-3 2V8q0-9-5-13-6-4-14-4-9 0-15 6-5 6-5 18t5 18 15 7q7 0 11-3l7-8 12 2-6 10-10 7-14 2q-9 0-17-4t-12-12-4-19M747 142v10h-61v-10zm-15 67q-10 1-16-2a17 17 0 0 1-8-9q-3-5-3-17v-59h12v59l2 11 5 5 9 2 16-3v11l-8 2zm39-1v-98h12v98zm43 0v-44l-1-8-5-4-6-1q-6 0-11 3-6 3-10 9v-11h4l6-6 7-4 10-1 10 2q4 2 6 6l2 12v47zm32-33q0-10 4-19a28 28 0 0 1 12-11q8-4 17-4 10 0 16 3a23 23 0 0 1 10 10q4 6 4 16v6h-54v-8h45l-3 2v-2q0-9-5-13t-13-4q-10 0-15 6-6 6-6 18t6 18 15 7q7 0 11-3l7-8 12 2-7 10-10 7-13 2q-10 0-17-4t-12-12-4-19m92 33h-11v-66h10l1 11zm14 0v-51l-2-5-3-1-6 2-4 5-2-7h3l4-5 4-4 6-1q6 0 8 3 3 3 3 9v55zm24 0v-51l-1-5-4-1-5 2-5 5-1-7h3l3-5 5-4 6-1q5 0 8 3l2 9v55zm29-33q0-10 4-19a28 28 0 0 1 11-11q8-4 18-4 9 0 16 3a23 23 0 0 1 10 10q4 6 4 16v6h-54v-8h45l-3 2v-2q0-9-5-13t-13-4q-10 0-16 6-5 6-5 18t5 18 16 7q6 0 11-3l7-8 11 2-6 10-10 6-13 3q-10 0-18-4-7-4-11-12-4-7-4-19m0 0"/><path fill="#a8d0af" d="M747 300v15h-61v-15zm-15 70-17-2q-7-3-9-9-3-7-3-19v-59h18v59l1 9 4 4 8 1q6 1 15-2v16l-8 1zm101-36q0 12-5 20t-12 12-17 4q-10-1-18-4-7-4-12-12-4-8-4-20 0-11 4-20a27 27 0 0 1 12-12q7-3 18-4c11-1 12 2 17 4a27 27 0 0 1 12 12q5 8 5 20m-19 0q0-8-2-13-2-4-5-6-4-3-8-3-5 0-8 3-4 2-6 6-2 5-2 13l2 13q1 5 6 6l8 2q4 0 8-2 3-1 5-6zm33 34v-98h19v98zm33-43-7 3 21-28h20l-25 32v1l26 35h-21l-24-32 9 3h-16v-14zm43 9q0-12 5-20a30 30 0 0 1 12-12q9-3 19-4 10 0 17 4a24 24 0 0 1 10 10q4 8 4 18v6h-52v-10h36l-2 2v-2q0-7-4-10-4-4-10-4-8 0-12 5-4 6-4 17 0 10 4 16 5 6 12 5 5 0 8-2l6-6 18 3-8 11-11 7-13 2q-11 0-18-4a29 29 0 0 1-12-13q-5-7-5-19m102 34h-19v-68h16l1 12h2zm24 0v-45l-1-6-3-3-5-1-9 2-9 8v-13h4l10-9q6-3 13-3l10 2q5 3 6 7 3 3 2 11v50zm68-70q9 0 16 3 6 2 9 6 4 5 3 12l-16 1-4-7-9-2-10 2q-3 2-3 5l2 3 4 2 13 4 14 4 8 6q3 4 3 10 0 7-4 12-3 6-11 8-7 3-18 3l-15-2-11-7-5-12 17-2 3 6 5 3 7 1 8-1 4-3 1-3q1-3-2-4l-5-3-12-3-12-4q-5-3-8-7-3-3-3-10 0-10 8-15 7-6 23-6m0 0"/></svg>
