<svg xmlns="http://www.w3.org/2000/svg" width="1280" height="640"><path fill="#0b0f0c" d="M0 0h1280v640H0Z"/><path fill="#dfe8dd" d="M345 310q0-9-3-15-1-6-6-8-5-3-12-3-8 0-14 4-6 5-9 12-3 8-3 20v31q0 12 4 20 4 9 10 11 7 3 16 3l13-1 13-4v9l-13 4-13 1q-13 0-21-4t-14-13q-4-10-4-26v-30q0-15 4-26c4-11 6-11 12-15q7-5 19-5 11 0 17 4 7 4 10 12 3 9 3 22v40l1 5 1 2 3-1v9l-6 2-5-2-2-4-1-8zm-33 19 2-17 6-9 9-2 6 1 5 2 4 4h2v11l-6-7-7-2-6 2q-3 2-4 6l-1 13v7l1 14 4 7 6 2 7-3 6-7v11h-2l-4 4-5 3-6 1-9-3q-5-3-6-10l-2-16zm0 0"/><path fill="#a5ada4" d="M383 86h-11V21h9l1 11h1zm13 0V36l-1-5-4-1-5 1-5 6-2-8h4l3-5 5-4 6-1q5 0 8 3l2 9v55zm25 0V36q0-4-2-5l-3-1-6 1-4 6-2-8h4q1-3 3-5l4-4 6-1q6 0 8 3 3 3 3 9v55Zm28-32q1-12 4-19a28 28 0 0 1 12-12q8-4 18-4 9 0 16 3a23 23 0 0 1 10 10q3 7 3 16v6h-54v-8h46l-4 3v-3q1-9-5-13-4-4-13-4-10 0-15 6-6 7-5 19 0 12 5 18t15 6q6 0 11-3l7-8 12 2-7 10-10 7-13 2q-9 0-17-4a28 28 0 0 1-12-12q-4-7-4-18m127-66h12v98h-10l-2-11zm-48 66q0-11 4-19 3-7 9-12 5-3 14-4l12 3 8 7h3v10l-9-7-10-3q-6 0-10 3l-6 8-2 14 2 13 6 8q4 3 10 3l10-2 9-8v10h-3l-9 7q-4 3-12 3t-14-4a25 25 0 0 1-8-12q-4-8-4-18m106 32V27l3 3h-26v-9l33-2 2 2v65Zm-23-9h58v9h-58zm27-73-5-1a8 8 0 0 1-4-7l2-6 7-2 6 2 2 6q0 4-2 6zm80 15 14 2 8 7q3 4 3 12v33l1 3 2 2h5v8l-8 2-7-2-3-4-1-5-1-2V41l-2-8-5-4-8-1-7 1-5 3q-2 3-2 7v3h-12v-4q0-9 7-14 6-5 21-5m18 38h-6l-5-1-13 2q-6 1-8 4-3 2-3 7l1 5 5 4 6 1 10-2 10-6v7h-2l-7 5-7 4-9 1-11-2-7-6-2-10q0-9 6-13 6-5 16-6l22-1zM374 227v-98h12v98Zm29-40-7 3 25-28h14l-26 29v1l29 35h-15l-27-32 7 2h-19v-10zm46 7q0-10 4-18a28 28 0 0 1 12-12q8-4 18-4 9 0 16 3a23 23 0 0 1 10 10q3 6 3 16v6h-54v-8h46l-4 3v-3q1-9-5-13-4-4-13-4-10 0-15 6-6 6-5 18 0 13 5 19t15 6q6 0 11-3l7-8 12 2-7 10-10 7-13 2q-9-1-17-4a28 28 0 0 1-12-12q-4-8-4-19m78-32h13l22 51h1l19-51h12l-25 64-7 15-11 9q-6 4-14 4l-4-1h-4v-11h1l3 1h4q5 0 9-2l5-4 4-6 3-9 2 3-1 9zm145-25-15-2-9 2-6 5q-2 5-2 12v73h-12v-72q0-11 3-18a21 21 0 0 1 10-10q7-3 16-2h8l7 1zm-62 80h53v10h-53zm60-46h-63v-9h63zm48 2v54h-12v-59l3 3h-20v-9h28zm32-1-14 1-10 2-10 6v-10h3q5-6 11-8 6-3 14-3h6zm-61 45h53v10h-53zm108-57 14 2a16 16 0 0 1 9 7q3 5 3 12v36l3 1h4v9l-8 1-7-1-3-4-1-6-1-1v-35l-1-7-5-4-8-1-8 1-5 3q-2 3-2 7v3h-11v-4q0-8 6-14 7-5 21-5m18 38-5-1h-6l-13 2q-5 1-8 3-4 3-3 8l2 5 4 4 7 1 10-2 9-6v7h-2l-7 5-7 3-9 2-10-2-7-6-3-10q1-9 6-13 6-5 16-6l23-2zm44 29h-11v-65h9l1 11h1zm14 0v-51l-2-4-4-2q-3 0-5 2l-5 6-1-8h3l3-5 5-4 6-1q5 0 8 3t3 9v55zm24 0v-51l-1-4-4-2-6 2-4 6-2-8h4l3-5 5-4 6-1q4 0 7 3t3 9v55zm28-33q1-10 4-18a28 28 0 0 1 12-12q8-4 18-4 9 0 16 3a23 23 0 0 1 10 10q3 6 3 16v6h-54v-8h46l-4 3v-3q0-9-5-13-4-4-13-4t-15 6-5 18q0 13 5 19 6 6 15 6 7 0 11-3l7-8 12 2-6 10-11 7-13 2q-9-1-17-4a28 28 0 0 1-12-12q-3-7-4-19m112-34 15 2 9 7q4 4 4 11h-11a11 11 0 0 0-5-8q-4-3-13-3l-12 2q-4 3-4 7l1 4 5 3 9 3 5 1 15 4q5 2 8 6 3 3 3 9l-4 11-10 7q-6 3-16 3l-15-2-11-7-5-12 11-1 5 8 6 4a40 40 0 0 0 19-1l6-3 2-5q0-3-3-5-2-2-6-3l-13-3-13-5-8-6q-3-3-3-9 1-9 7-14 7-5 22-5m0 0"/><path fill="#a8d0af" d="m435 282-15-2-8 1-5 5-1 9v73h-18v-69q0-12 3-20a22 22 0 0 1 10-11q8-3 18-4l16 2zm-63 71h54v15h-54Zm61-38h-65v-15h65Zm60-15h19v68h-16l-1-12h-2zm-24 0v45l1 6 3 3 5 1q5 0 9-3l9-7v13h-4q-5 6-11 9-5 3-13 3-6 0-9-3l-6-6q-3-4-2-11v-50Zm79 68h-18v-68h16l1 12h1zm25 0v-45l-1-6-3-3-5-1-10 2-8 8v-13h3l11-9 13-3 10 2 6 7 2 11v50Zm100-22-7 14-12 7-14 3q-10 0-18-4a28 28 0 0 1-12-13q-4-7-4-19t4-20a29 29 0 0 1 13-12q7-4 18-4 9 0 16 3l11 8q4 6 5 14l-18 2-5-9q-3-4-10-4-8 0-12 6-3 6-4 16l2 12q2 5 6 7l8 2 10-2 5-9zm74-46v15h-61v-15zm-15 70q-12 0-17-3a16 16 0 0 1-9-8q-3-7-3-19v-59h18v59l1 9 4 4 8 1q6 0 15-2v16zm57-2v-58l3 5h-24v-15l38-2 2 2v68Zm-21-15h62v15h-62zm28-65-7-1-4-4-1-6q0-5 3-8l9-3 9 3 3 8q0 6-3 8zm116 46q0 12-5 20a28 28 0 0 1-12 12q-8 4-17 4t-17-4a28 28 0 0 1-13-12q-4-8-4-20t4-20a28 28 0 0 1 13-12l17-4q9 1 17 4a28 28 0 0 1 12 12q5 8 5 20m-19 0q0-8-2-13-1-4-5-7l-8-2-8 2q-4 3-6 7l-1 13 1 13 6 6q3 3 8 2 5 1 8-2l5-6q2-5 2-13m52 34h-18v-68h16l1 12h1zm25 0v-45l-1-6-4-3-4-1-10 2-9 8v-13h4l11-9 13-3 10 2 6 7 2 11v50ZM385 509h-16v-69h14l1 13h1zm14 0v-49l-2-4-4-2-6 2-5 6v-11h3l7-8a16 16 0 0 1 11-4q6 0 9 4 3 3 3 12v54zm29 0v-49q1-3-1-4l-4-2-4 1-4 3-3 4v-11h4l6-9 10-3q6 0 10 4 3 4 3 12v54zm49 0v-58l3 4h-19v-15l33-1 2 2v68Zm-16-15h51v15h-51Zm23-64-6-2-5-3-1-6q0-5 3-8t9-3 9 3l3 8q0 5-3 8-4 3-9 3m62 10 51 69h-21l-51-69zm30 0h20l-29 40-10-11zm-31 69h-21l30-40 10 11zm86 0v-58l3 4h-25v-15l38-1 2 2v68Zm-22-15h62v15h-62zm28-65-6-1-5-4-1-6q0-5 3-8l9-3q6 0 9 3l3 8q0 5-3 8zm70 80h-18v-69h16l1 13h1zm24 0v-46l-1-6-3-2-4-1q-6-1-10 2l-9 7v-12h4l11-9 13-3 10 2 6 6 2 12v50zm0 0"/></svg>
