<svg xmlns="http://www.w3.org/2000/svg" width="1280" height="640" viewBox="-20.5 0 104 52">
  <path fill="#000b2f" d="M-1000 -1000 H 1000 V 1000 H -1000 Z" />
  <path
    fill="#80aeff"
    d="M4 2a2 2 0 0 0-2 2v4a2 2 0 0 0 2 2h3a2 2 0 0 0 2-2V7h2v8a2 2 0 0 0 2 2h2v1a2 2 0 0 0 2 2h3a2 2 0 0 0 2-2v-1h2v8a2 2 0 0 0 2 2h2v1a2 2 0 0 0 2 2h3a2 2 0 0 0 2-2v-1h2v8a2 2 0 0 0 2 2h2v1a2 2 0 0 0 2 2h3a2 2 0 0 0 2-2v-1h2v8a2 2 0 0 0 2 2h2v1a2 2 0 0 0 2 2h3a2 2 0 0 0 2-2v-4a2 2 0 0 0-2-2h-3a2 2 0 0 0-2 2v1h-2v-8h2v1a2 2 0 0 0 2 2h3a2 2 0 0 0 2-2v-4a2 2 0 0 0-2-2h-3a2 2 0 0 0-2 2v1h-6v-1a2 2 0 0 0-2-2h-3a2 2 0 0 0-2 2v1h-2v-8h2v1a2 2 0 0 0 2 2h3a2 2 0 0 0 2-2v-4a2 2 0 0 0-2-2h-3a2 2 0 0 0-2 2v1h-6v-1a2 2 0 0 0-2-2h-3a2 2 0 0 0-2 2v1h-2v-8h2v1a2 2 0 0 0 2 2h3a2 2 0 0 0 2-2v-4a2 2 0 0 0-2-2h-3a2 2 0 0 0-2 2v1h-6v-1a2 2 0 0 0-2-2h-3a2 2 0 0 0-2 2v1h-2V7h2v1a2 2 0 0 0 2 2h3a2 2 0 0 0 2-2V4a2 2 0 0 0-2-2h-3a2 2 0 0 0-2 2v1H9V4a2 2 0 0 0-2-2Zm0 2h3v4H4Zm13 0h3v4h-3Zm0 10h3v4h-3Zm13 0h3v4h-3Zm0 10h3v4h-3Zm13 0h3v4h-3Zm0 10h3v4h-3Zm13 0h3v4h-3Zm0 10h3v4h-3Z"
  />
</svg>
