<svg id="visual" viewBox="0 0 2000 1000" width="2000" height="1000" xmlns="http://www.w3.org/2000/svg" xmlns:xlink="http://www.w3.org/1999/xlink" version="1.1"><path d="M0 662L167 662L167 596L333 596L333 653L500 653L500 677L667 677L667 739L833 739L833 672L1000 672L1000 590L1167 590L1167 756L1333 756L1333 684L1500 684L1500 653L1667 653L1667 705L1833 705L1833 734L2000 734L2000 601L2000 0L2000 0L1833 0L1833 0L1667 0L1667 0L1500 0L1500 0L1333 0L1333 0L1167 0L1167 0L1000 0L1000 0L833 0L833 0L667 0L667 0L500 0L500 0L333 0L333 0L167 0L167 0L0 0Z" fill="#440000"></path><path d="M0 528L167 528L167 419L333 419L333 413L500 413L500 508L667 508L667 400L833 400L833 518L1000 518L1000 381L1167 381L1167 473L1333 473L1333 380L1500 380L1500 531L1667 531L1667 523L1833 523L1833 510L2000 510L2000 466L2000 0L2000 0L1833 0L1833 0L1667 0L1667 0L1500 0L1500 0L1333 0L1333 0L1167 0L1167 0L1000 0L1000 0L833 0L833 0L667 0L667 0L500 0L500 0L333 0L333 0L167 0L167 0L0 0Z" fill="#9e0010"></path><path d="M0 299L167 299L167 316L333 316L333 208L500 208L500 208L667 208L667 217L833 217L833 216L1000 216L1000 296L1167 296L1167 263L1333 263L1333 175L1500 175L1500 301L1667 301L1667 211L1833 211L1833 179L2000 179L2000 303L2000 0L2000 0L1833 0L1833 0L1667 0L1667 0L1500 0L1500 0L1333 0L1333 0L1167 0L1167 0L1000 0L1000 0L833 0L833 0L667 0L667 0L500 0L500 0L333 0L333 0L167 0L167 0L0 0Z" fill="#ff0000"></path></svg>